<?xml version="1.0" standalone="no"?>
 <!DOCTYPE svg PUBLIC "-//W3C//DTD SVG 1.1//EN" 
 "http://www.w3.org/Graphics/SVG/1.1/DTD/svg11.dtd"> 
<svg
  xmlns:svg="http://www.w3.org/2000/svg"
  xmlns="http://www.w3.org/2000/svg"
  xmlns:xlink="http://www.w3.org/1999/xlink"
  version="1.1"
  width="29.700220cm" height="21.000720cm" viewBox="0 0 297002200 210007200">
<title>SVG Picture created as mushroomFarmKiCAD-F_Cu.svg date 2022/12/14 21:52:06 </title>
  <desc>Picture generated by PCBNEW </desc>
<g style="fill:#000000; fill-opacity:1.000000;stroke:#000000; stroke-opacity:1.000000;
stroke-linecap:round; stroke-linejoin:round;"
 transform="translate(0 0) scale(1 1)">
</g>
<g style="fill:#000000; fill-opacity:0.0; 
stroke:#000000; stroke-width:0.000000; stroke-opacity:1; 
stroke-linecap:round; stroke-linejoin:round;">
<g >
</g>
<g style="fill:#000000; fill-opacity:0.0; 
stroke:#000000; stroke-width:1.000000; stroke-opacity:1; 
stroke-linecap:round; stroke-linejoin:round;">
</g>
<g style="fill:#000000; fill-opacity:1.0; 
stroke:#000000; stroke-width:1.000000; stroke-opacity:1; 
stroke-linecap:round; stroke-linejoin:round;">
<path style="fill:#000000; fill-opacity:1.0; 
stroke:#000000; stroke-width:1.000000; stroke-opacity:1; 
stroke-linecap:round; stroke-linejoin:round;fill-rule:evenodd;"
d="M 108721399.000000,123472822.000000
106721401.000000,123472822.000000
106721401.000000,121567824.000000
108721399.000000,121567824.000000
Z" /> 
</g>
<g style="fill:#000000; fill-opacity:1.0; 
stroke:#000000; stroke-width:1905000.000000; stroke-opacity:1; 
stroke-linecap:round; stroke-linejoin:round;">
</g>
<g style="fill:#000000; fill-opacity:0.0; 
stroke:#000000; stroke-width:1905000.000000; stroke-opacity:1; 
stroke-linecap:round; stroke-linejoin:round;">
<path d="M107673900 119980323
L107768900 119980323
" />
<path d="M107673900 117440323
L107768900 117440323
" />
</g>
<g >
</g>
<g style="fill:#000000; fill-opacity:0.0; 
stroke:#000000; stroke-width:1905000.000000; stroke-opacity:1; 
stroke-linecap:round; stroke-linejoin:round;">
</g>
<g style="fill:#000000; fill-opacity:0.0; 
stroke:#000000; stroke-width:1.000000; stroke-opacity:1; 
stroke-linecap:round; stroke-linejoin:round;">
</g>
<g style="fill:#000000; fill-opacity:1.0; 
stroke:#000000; stroke-width:1.000000; stroke-opacity:1; 
stroke-linecap:round; stroke-linejoin:round;">
<path style="fill:#000000; fill-opacity:1.0; 
stroke:#000000; stroke-width:1.000000; stroke-opacity:1; 
stroke-linecap:round; stroke-linejoin:round;fill-rule:evenodd;"
d="M 172200201.000000,85280322.000000
172200201.000000,83580324.000000
173900199.000000,83580324.000000
173900199.000000,85280322.000000
Z" /> 
<circle cx="173050200.000000" cy="86970323.000000" r="850000.000000" /> 
<circle cx="173050200.000000" cy="89510323.000000" r="850000.000000" /> 
<circle cx="173050200.000000" cy="92050323.000000" r="850000.000000" /> 
</g>
<g >
</g>
<g style="fill:#000000; fill-opacity:1.0; 
stroke:#000000; stroke-width:1.000000; stroke-opacity:1; 
stroke-linecap:round; stroke-linejoin:round;">
<path style="fill:#000000; fill-opacity:1.0; 
stroke:#000000; stroke-width:1.000000; stroke-opacity:1; 
stroke-linecap:round; stroke-linejoin:round;fill-rule:evenodd;"
d="M 73661399.000000,99128322.000000
70661401.000000,99128322.000000
70661401.000000,96128324.000000
73661399.000000,96128324.000000
Z" /> 
<circle cx="72161400.000000" cy="92628323.000000" r="1500000.000000" /> 
</g>
<g style="fill:#000000; fill-opacity:1.0; 
stroke:#000000; stroke-width:21200.000000; stroke-opacity:1; 
stroke-linecap:round; stroke-linejoin:round;">
</g>
<g >
</g>
<g style="fill:#000000; fill-opacity:1.0; 
stroke:#000000; stroke-width:21200.000000; stroke-opacity:1; 
stroke-linecap:round; stroke-linejoin:round;">
</g>
<g style="fill:#000000; fill-opacity:1.0; 
stroke:#000000; stroke-width:1.000000; stroke-opacity:1; 
stroke-linecap:round; stroke-linejoin:round;">
<path style="fill:#000000; fill-opacity:1.0; 
stroke:#000000; stroke-width:1.000000; stroke-opacity:1; 
stroke-linecap:round; stroke-linejoin:round;fill-rule:evenodd;"
d="M 182614201.000000,71351122.000000
182614201.000000,69651124.000000
184314199.000000,69651124.000000
184314199.000000,71351122.000000
Z" /> 
<circle cx="183464200.000000" cy="73041123.000000" r="850000.000000" /> 
<circle cx="183464200.000000" cy="75581123.000000" r="850000.000000" /> 
<circle cx="183464200.000000" cy="78121123.000000" r="850000.000000" /> 
<circle cx="183464200.000000" cy="80661123.000000" r="850000.000000" /> 
<circle cx="183464200.000000" cy="83201123.000000" r="850000.000000" /> 
<circle cx="183464200.000000" cy="85741123.000000" r="850000.000000" /> 
<circle cx="183464200.000000" cy="88281123.000000" r="850000.000000" /> 
<circle cx="183464200.000000" cy="90821123.000000" r="850000.000000" /> 
<circle cx="183464200.000000" cy="93361123.000000" r="850000.000000" /> 
<circle cx="183464200.000000" cy="95901123.000000" r="850000.000000" /> 
<circle cx="183464200.000000" cy="98441123.000000" r="850000.000000" /> 
<circle cx="183464200.000000" cy="100981123.000000" r="850000.000000" /> 
<circle cx="183464200.000000" cy="103521123.000000" r="850000.000000" /> 
<circle cx="183464200.000000" cy="106061123.000000" r="850000.000000" /> 
</g>
<g >
</g>
<g style="fill:#000000; fill-opacity:1.0; 
stroke:#000000; stroke-width:1.000000; stroke-opacity:1; 
stroke-linecap:round; stroke-linejoin:round;">
<path style="fill:#000000; fill-opacity:1.0; 
stroke:#000000; stroke-width:1.000000; stroke-opacity:1; 
stroke-linecap:round; stroke-linejoin:round;fill-rule:evenodd;"
d="M 117965399.000000,94664322.000000
115765401.000000,94664322.000000
115765401.000000,92464324.000000
117965399.000000,92464324.000000
Z" /> 
<circle cx="116865400.000000" cy="83404323.000000" r="1100000.000000" /> 
</g>
<g >
</g>
<g style="fill:#000000; fill-opacity:1.0; 
stroke:#000000; stroke-width:1.000000; stroke-opacity:1; 
stroke-linecap:round; stroke-linejoin:round;">
<path style="fill:#000000; fill-opacity:1.0; 
stroke:#000000; stroke-width:1.000000; stroke-opacity:1; 
stroke-linecap:round; stroke-linejoin:round;fill-rule:evenodd;"
d="M 141795501.000000,87867999.000000
141795501.000000,85868001.000000
143700499.000000,85868001.000000
143700499.000000,87867999.000000
Z" /> 
</g>
<g style="fill:#000000; fill-opacity:1.0; 
stroke:#000000; stroke-width:1905000.000000; stroke-opacity:1; 
stroke-linecap:round; stroke-linejoin:round;">
</g>
<g style="fill:#000000; fill-opacity:0.0; 
stroke:#000000; stroke-width:1905000.000000; stroke-opacity:1; 
stroke-linecap:round; stroke-linejoin:round;">
<path d="M145288000 86820500
L145288000 86915500
" />
<path d="M147828000 86820500
L147828000 86915500
" />
</g>
<g >
</g>
<g style="fill:#000000; fill-opacity:0.0; 
stroke:#000000; stroke-width:1905000.000000; stroke-opacity:1; 
stroke-linecap:round; stroke-linejoin:round;">
</g>
<g style="fill:#000000; fill-opacity:0.0; 
stroke:#000000; stroke-width:1.000000; stroke-opacity:1; 
stroke-linecap:round; stroke-linejoin:round;">
</g>
<g style="fill:#000000; fill-opacity:1.0; 
stroke:#000000; stroke-width:1.000000; stroke-opacity:1; 
stroke-linecap:round; stroke-linejoin:round;">
<path style="fill:#000000; fill-opacity:1.0; 
stroke:#000000; stroke-width:1.000000; stroke-opacity:1; 
stroke-linecap:round; stroke-linejoin:round;fill-rule:evenodd;"
d="M 202096001.000000,118022001.000000
203795999.000000,118022001.000000
203795999.000000,119721999.000000
202096001.000000,119721999.000000
Z" /> 
<circle cx="200406000.000000" cy="118872000.000000" r="850000.000000" /> 
<circle cx="197866000.000000" cy="118872000.000000" r="850000.000000" /> 
<circle cx="195326000.000000" cy="118872000.000000" r="850000.000000" /> 
<circle cx="192786000.000000" cy="118872000.000000" r="850000.000000" /> 
<circle cx="190246000.000000" cy="118872000.000000" r="850000.000000" /> 
</g>
<g >
</g>
<g style="fill:#000000; fill-opacity:1.0; 
stroke:#000000; stroke-width:1.000000; stroke-opacity:1; 
stroke-linecap:round; stroke-linejoin:round;">
<circle cx="83337400.000000" cy="91960323.000000" r="1000000.000000" /> 
</g>
<g style="fill:#000000; fill-opacity:1.0; 
stroke:#000000; stroke-width:21200.000000; stroke-opacity:1; 
stroke-linecap:round; stroke-linejoin:round;">
</g>
<g style="fill:#000000; fill-opacity:1.0; 
stroke:#000000; stroke-width:1.000000; stroke-opacity:1; 
stroke-linecap:round; stroke-linejoin:round;">
<circle cx="83337400.000000" cy="81960323.000000" r="1000000.000000" /> 
</g>
<g style="fill:#000000; fill-opacity:1.0; 
stroke:#000000; stroke-width:21200.000000; stroke-opacity:1; 
stroke-linecap:round; stroke-linejoin:round;">
</g>
<g >
</g>
<g style="fill:#000000; fill-opacity:1.0; 
stroke:#000000; stroke-width:21200.000000; stroke-opacity:1; 
stroke-linecap:round; stroke-linejoin:round;">
</g>
<g style="fill:#000000; fill-opacity:1.0; 
stroke:#000000; stroke-width:1.000000; stroke-opacity:1; 
stroke-linecap:round; stroke-linejoin:round;">
<path style="fill:#000000; fill-opacity:1.0; 
stroke:#000000; stroke-width:1.000000; stroke-opacity:1; 
stroke-linecap:round; stroke-linejoin:round;fill-rule:evenodd;"
d="M 208115801.000000,71503522.000000
208115801.000000,69803524.000000
209815799.000000,69803524.000000
209815799.000000,71503522.000000
Z" /> 
<circle cx="208965800.000000" cy="73193523.000000" r="850000.000000" /> 
<circle cx="208965800.000000" cy="75733523.000000" r="850000.000000" /> 
<circle cx="208965800.000000" cy="78273523.000000" r="850000.000000" /> 
<circle cx="208965800.000000" cy="80813523.000000" r="850000.000000" /> 
<circle cx="208965800.000000" cy="83353523.000000" r="850000.000000" /> 
<circle cx="208965800.000000" cy="85893523.000000" r="850000.000000" /> 
<circle cx="208965800.000000" cy="88433523.000000" r="850000.000000" /> 
<circle cx="208965800.000000" cy="90973523.000000" r="850000.000000" /> 
<circle cx="208965800.000000" cy="93513523.000000" r="850000.000000" /> 
<circle cx="208965800.000000" cy="96053523.000000" r="850000.000000" /> 
<circle cx="208965800.000000" cy="98593523.000000" r="850000.000000" /> 
<circle cx="208965800.000000" cy="101133523.000000" r="850000.000000" /> 
<circle cx="208965800.000000" cy="103673523.000000" r="850000.000000" /> 
<circle cx="208965800.000000" cy="106213523.000000" r="850000.000000" /> 
</g>
<g >
</g>
<g style="fill:#000000; fill-opacity:1.0; 
stroke:#000000; stroke-width:1.000000; stroke-opacity:1; 
stroke-linecap:round; stroke-linejoin:round;">
<path style="fill:#000000; fill-opacity:1.0; 
stroke:#000000; stroke-width:1.000000; stroke-opacity:1; 
stroke-linecap:round; stroke-linejoin:round;fill-rule:evenodd;"
d="M 136156801.000000,103182873.000000
137756799.000000,103182873.000000
137756799.000000,104782871.000000
136156801.000000,104782871.000000
Z" /> 
<circle cx="136956800.000000" cy="107782872.000000" r="800000.000000" /> 
</g>
<g style="fill:#000000; fill-opacity:1.0; 
stroke:#000000; stroke-width:21200.000000; stroke-opacity:1; 
stroke-linecap:round; stroke-linejoin:round;">
</g>
<g >
</g>
<g style="fill:#000000; fill-opacity:1.0; 
stroke:#000000; stroke-width:21200.000000; stroke-opacity:1; 
stroke-linecap:round; stroke-linejoin:round;">
</g>
<g style="fill:#000000; fill-opacity:1.0; 
stroke:#000000; stroke-width:1.000000; stroke-opacity:1; 
stroke-linecap:round; stroke-linejoin:round;">
<path style="fill:#000000; fill-opacity:1.0; 
stroke:#000000; stroke-width:1.000000; stroke-opacity:1; 
stroke-linecap:round; stroke-linejoin:round;fill-rule:evenodd;"
d="M 152924001.000000,101788324.000000
154923999.000000,101788324.000000
154923999.000000,103788322.000000
152924001.000000,103788322.000000
Z" /> 
<circle cx="153924000.000000" cy="107788323.000000" r="1000000.000000" /> 
</g>
<g style="fill:#000000; fill-opacity:1.0; 
stroke:#000000; stroke-width:21200.000000; stroke-opacity:1; 
stroke-linecap:round; stroke-linejoin:round;">
</g>
<g >
</g>
<g style="fill:#000000; fill-opacity:1.0; 
stroke:#000000; stroke-width:21200.000000; stroke-opacity:1; 
stroke-linecap:round; stroke-linejoin:round;">
</g>
<g style="fill:#000000; fill-opacity:1.0; 
stroke:#000000; stroke-width:1.000000; stroke-opacity:1; 
stroke-linecap:round; stroke-linejoin:round;">
<path style="fill:#000000; fill-opacity:1.0; 
stroke:#000000; stroke-width:1.000000; stroke-opacity:1; 
stroke-linecap:round; stroke-linejoin:round;fill-rule:evenodd;"
d="M 157291676.000000,77232001.000000
157291676.000000,79231999.000000
155291678.000000,79231999.000000
155291678.000000,77232001.000000
Z" /> 
<circle cx="151291677.000000" cy="78232000.000000" r="1000000.000000" /> 
</g>
<g style="fill:#000000; fill-opacity:1.0; 
stroke:#000000; stroke-width:21200.000000; stroke-opacity:1; 
stroke-linecap:round; stroke-linejoin:round;">
</g>
<g >
</g>
<g style="fill:#000000; fill-opacity:1.0; 
stroke:#000000; stroke-width:21200.000000; stroke-opacity:1; 
stroke-linecap:round; stroke-linejoin:round;">
</g>
<g style="fill:#000000; fill-opacity:1.0; 
stroke:#000000; stroke-width:1.000000; stroke-opacity:1; 
stroke-linecap:round; stroke-linejoin:round;">
<path style="fill:#000000; fill-opacity:1.0; 
stroke:#000000; stroke-width:1.000000; stroke-opacity:1; 
stroke-linecap:round; stroke-linejoin:round;fill-rule:evenodd;"
d="M 141770101.000000,94949122.000000
141770101.000000,92949124.000000
143675099.000000,92949124.000000
143675099.000000,94949122.000000
Z" /> 
</g>
<g style="fill:#000000; fill-opacity:1.0; 
stroke:#000000; stroke-width:1905000.000000; stroke-opacity:1; 
stroke-linecap:round; stroke-linejoin:round;">
</g>
<g style="fill:#000000; fill-opacity:0.0; 
stroke:#000000; stroke-width:1905000.000000; stroke-opacity:1; 
stroke-linecap:round; stroke-linejoin:round;">
<path d="M145262600 93901623
L145262600 93996623
" />
<path d="M147802600 93901623
L147802600 93996623
" />
</g>
<g >
</g>
<g style="fill:#000000; fill-opacity:0.0; 
stroke:#000000; stroke-width:1905000.000000; stroke-opacity:1; 
stroke-linecap:round; stroke-linejoin:round;">
</g>
<g style="fill:#000000; fill-opacity:1.0; 
stroke:#000000; stroke-width:1.000000; stroke-opacity:1; 
stroke-linecap:round; stroke-linejoin:round;">
<circle cx="89433400.000000" cy="92294323.000000" r="1200000.000000" /> 
</g>
<g style="fill:#000000; fill-opacity:1.0; 
stroke:#000000; stroke-width:21200.000000; stroke-opacity:1; 
stroke-linecap:round; stroke-linejoin:round;">
</g>
<g style="fill:#000000; fill-opacity:1.0; 
stroke:#000000; stroke-width:1.000000; stroke-opacity:1; 
stroke-linecap:round; stroke-linejoin:round;">
<circle cx="89433400.000000" cy="79594323.000000" r="1200000.000000" /> 
</g>
<g >
</g>
<g style="fill:#000000; fill-opacity:1.0; 
stroke:#000000; stroke-width:1.000000; stroke-opacity:1; 
stroke-linecap:round; stroke-linejoin:round;">
<path style="fill:#000000; fill-opacity:1.0; 
stroke:#000000; stroke-width:1.000000; stroke-opacity:1; 
stroke-linecap:round; stroke-linejoin:round;fill-rule:evenodd;"
d="M 101541401.000000,98728322.000000
101541401.000000,96528324.000000
103741399.000000,96528324.000000
103741399.000000,98728322.000000
Z" /> 
<circle cx="112801400.000000" cy="97628323.000000" r="1100000.000000" /> 
</g>
<g >
</g>
<g style="fill:#000000; fill-opacity:1.0; 
stroke:#000000; stroke-width:1.000000; stroke-opacity:1; 
stroke-linecap:round; stroke-linejoin:round;">
<circle cx="115849400.000000" cy="114646323.000000" r="1200000.000000" /> 
</g>
<g style="fill:#000000; fill-opacity:1.0; 
stroke:#000000; stroke-width:21200.000000; stroke-opacity:1; 
stroke-linecap:round; stroke-linejoin:round;">
</g>
<g style="fill:#000000; fill-opacity:1.0; 
stroke:#000000; stroke-width:1.000000; stroke-opacity:1; 
stroke-linecap:round; stroke-linejoin:round;">
<circle cx="115849400.000000" cy="101946323.000000" r="1200000.000000" /> 
</g>
<g >
</g>
<g style="fill:#000000; fill-opacity:1.0; 
stroke:#000000; stroke-width:1.000000; stroke-opacity:1; 
stroke-linecap:round; stroke-linejoin:round;">
<path style="fill:#000000; fill-opacity:1.0; 
stroke:#000000; stroke-width:1.000000; stroke-opacity:1; 
stroke-linecap:round; stroke-linejoin:round;fill-rule:evenodd;"
d="M 99677399.000000,118032322.000000
97477401.000000,118032322.000000
97477401.000000,115832324.000000
99677399.000000,115832324.000000
Z" /> 
<circle cx="98577400.000000" cy="106772323.000000" r="1100000.000000" /> 
</g>
<g >
</g>
<g style="fill:#000000; fill-opacity:1.0; 
stroke:#000000; stroke-width:1.000000; stroke-opacity:1; 
stroke-linecap:round; stroke-linejoin:round;">
<path style="fill:#000000; fill-opacity:1.0; 
stroke:#000000; stroke-width:1.000000; stroke-opacity:1; 
stroke-linecap:round; stroke-linejoin:round;fill-rule:evenodd;"
d="M 100185399.000000,94664322.000000
97985401.000000,94664322.000000
97985401.000000,92464324.000000
100185399.000000,92464324.000000
Z" /> 
<circle cx="99085400.000000" cy="83404323.000000" r="1100000.000000" /> 
</g>
<g >
</g>
<g style="fill:#000000; fill-opacity:1.0; 
stroke:#000000; stroke-width:1.000000; stroke-opacity:1; 
stroke-linecap:round; stroke-linejoin:round;">
<path style="fill:#000000; fill-opacity:1.0; 
stroke:#000000; stroke-width:1.000000; stroke-opacity:1; 
stroke-linecap:round; stroke-linejoin:round;fill-rule:evenodd;"
d="M 101541401.000000,80440322.000000
101541401.000000,78240324.000000
103741399.000000,78240324.000000
103741399.000000,80440322.000000
Z" /> 
<circle cx="112801400.000000" cy="79340323.000000" r="1100000.000000" /> 
</g>
<g >
</g>
<g style="fill:#000000; fill-opacity:1.0; 
stroke:#000000; stroke-width:1.000000; stroke-opacity:1; 
stroke-linecap:round; stroke-linejoin:round;">
<path style="fill:#000000; fill-opacity:1.0; 
stroke:#000000; stroke-width:1.000000; stroke-opacity:1; 
stroke-linecap:round; stroke-linejoin:round;fill-rule:evenodd;"
d="M 133792324.000000,79231999.000000
133792324.000000,77232001.000000
135792322.000000,77232001.000000
135792322.000000,79231999.000000
Z" /> 
<circle cx="139792323.000000" cy="78232000.000000" r="1000000.000000" /> 
</g>
<g style="fill:#000000; fill-opacity:1.0; 
stroke:#000000; stroke-width:21200.000000; stroke-opacity:1; 
stroke-linecap:round; stroke-linejoin:round;">
</g>
<g >
</g>
<g style="fill:#000000; fill-opacity:1.0; 
stroke:#000000; stroke-width:21200.000000; stroke-opacity:1; 
stroke-linecap:round; stroke-linejoin:round;">
</g>
<g style="fill:#000000; fill-opacity:1.0; 
stroke:#000000; stroke-width:1.000000; stroke-opacity:1; 
stroke-linecap:round; stroke-linejoin:round;">
<circle cx="82067400.000000" cy="98136323.000000" r="1200000.000000" /> 
</g>
<g style="fill:#000000; fill-opacity:1.0; 
stroke:#000000; stroke-width:21200.000000; stroke-opacity:1; 
stroke-linecap:round; stroke-linejoin:round;">
</g>
<g style="fill:#000000; fill-opacity:1.0; 
stroke:#000000; stroke-width:1.000000; stroke-opacity:1; 
stroke-linecap:round; stroke-linejoin:round;">
<circle cx="94767400.000000" cy="98136323.000000" r="1200000.000000" /> 
</g>
<g >
</g>
<g style="fill:#000000; fill-opacity:1.0; 
stroke:#000000; stroke-width:1.000000; stroke-opacity:1; 
stroke-linecap:round; stroke-linejoin:round;">
<path style="fill:#000000; fill-opacity:1.0; 
stroke:#000000; stroke-width:1.000000; stroke-opacity:1; 
stroke-linecap:round; stroke-linejoin:round;fill-rule:evenodd;"
d="M 110727999.000000,106188001.000000
110727999.000000,108187999.000000
108728001.000000,108187999.000000
108728001.000000,106188001.000000
Z" /> 
<circle cx="104728000.000000" cy="107188000.000000" r="1000000.000000" /> 
</g>
<g style="fill:#000000; fill-opacity:1.0; 
stroke:#000000; stroke-width:21200.000000; stroke-opacity:1; 
stroke-linecap:round; stroke-linejoin:round;">
</g>
<g >
</g>
<g >
</g>
<g style="fill:#000000; fill-opacity:1.0; 
stroke:#000000; stroke-width:21200.000000; stroke-opacity:1; 
stroke-linecap:round; stroke-linejoin:round;">
</g>
<g style="fill:#000000; fill-opacity:1.0; 
stroke:#000000; stroke-width:1200000.000000; stroke-opacity:1; 
stroke-linecap:round; stroke-linejoin:round;">
</g>
<g style="fill:#000000; fill-opacity:0.0; 
stroke:#000000; stroke-width:1200000.000000; stroke-opacity:1; 
stroke-linecap:round; stroke-linejoin:round;">
<path d="M142722600 94513400
L136956800 100279200
" />
<path d="M136956800 100279200
L136956800 103982872
" />
<path d="M142722600 93949123
L142722600 94513400
" />
<path d="M134920251 101946323
L136956800 103982872
" />
<path d="M115849400 101946323
L134920251 101946323
" />
<path d="M153924000 107788323
L146186277 100050600
" />
<path d="M175260000 111760000
L173050200 109550200
" />
<path d="M187452000 118872000
L180340000 111760000
" />
<path d="M166734877 73041123
L155448000 84328000
" />
<path d="M153924000 107788323
L157312200 107788323
" />
<path d="M136956800 107782872
L136956800 110439200
" />
<path d="M151291677 82711677
L151291677 78232000
" />
<path d="M183464200 73041123
L166734877 73041123
" />
<path d="M136956800 110439200
L127415677 119980323
" />
<path d="M187452000 75184000
L185309123 73041123
" />
<path d="M208965800 73193523
L207305523 73193523
" />
<path d="M144663672 100076000
L136956800 107782872
" />
<path d="M183616600 73193523
L183464200 73041123
" />
<path d="M145262600 100050600
L145288000 100076000
" />
<path d="M190246000 118872000
L187452000 118872000
" />
<path d="M145262600 93949123
L145262600 100050600
" />
<path d="M206756000 73152000
L204724000 75184000
" />
<path d="M145288000 93923723
L145262600 93949123
" />
<path d="M180340000 111760000
L175260000 111760000
" />
<path d="M157312200 107788323
L173050200 92050323
" />
<path d="M207264000 73152000
L206756000 73152000
" />
<path d="M152908000 84328000
L151291677 82711677
" />
<path d="M146186277 100050600
L145262600 100050600
" />
<path d="M127415677 119980323
L107721400 119980323
" />
<path d="M145288000 100076000
L144663672 100076000
" />
<path d="M204724000 75184000
L187452000 75184000
" />
<path d="M173050200 109550200
L173050200 92050323
" />
<path d="M185309123 73041123
L183464200 73041123
" />
<path d="M151291677 78232000
L139792323 78232000
" />
<path d="M155448000 84328000
L152908000 84328000
" />
<path d="M207305523 73193523
L207264000 73152000
" />
</g>
<g style="fill:#000000; fill-opacity:0.0; 
stroke:#000000; stroke-width:2000000.000000; stroke-opacity:1; 
stroke-linecap:round; stroke-linejoin:round;">
<path d="M83337400 91960323
L89099400 91960323
" />
<path d="M72161400 92628323
L82669400 92628323
" />
<path d="M82669400 92628323
L83337400 91960323
" />
<path d="M89099400 91960323
L89433400 92294323
" />
</g>
<g style="fill:#000000; fill-opacity:0.0; 
stroke:#000000; stroke-width:1200000.000000; stroke-opacity:1; 
stroke-linecap:round; stroke-linejoin:round;">
<path d="M102641400 79340323
L102641400 79848323
" />
</g>
<g style="fill:#000000; fill-opacity:0.0; 
stroke:#000000; stroke-width:2000000.000000; stroke-opacity:1; 
stroke-linecap:round; stroke-linejoin:round;">
<path d="M83337400 81960323
L87067400 81960323
" />
<path d="M87067400 81960323
L89433400 79594323
" />
</g>
<g style="fill:#000000; fill-opacity:0.0; 
stroke:#000000; stroke-width:1200000.000000; stroke-opacity:1; 
stroke-linecap:round; stroke-linejoin:round;">
<path d="M93243400 83404323
L89433400 79594323
" />
<path d="M99085400 83404323
L93243400 83404323
" />
<path d="M102641400 79848323
L99085400 83404323
" />
<path d="M145288000 90424000
L143256000 90424000
" />
<path d="M131064000 78232000
L130048000 79248000
" />
<path d="M153924000 102788323
L153924000 100070523
" />
<path d="M143256000 90424000
L142748000 89916000
" />
<path d="M153924000 100070523
L147802600 93949123
" />
<path d="M147828000 93923723
L147802600 93949123
" />
<path d="M147802600 92938600
L145288000 90424000
" />
<path d="M130048000 84836000
L132080000 86868000
" />
<path d="M142748000 89916000
L142748000 86868000
" />
<path d="M147802600 93949123
L147802600 92938600
" />
<path d="M130048000 79248000
L130048000 84836000
" />
<path d="M132080000 86868000
L142748000 86868000
" />
<path d="M134792323 78232000
L131064000 78232000
" />
<path d="M156291677 78232000
L156291677 75011677
" />
<path d="M154432000 73152000
L139192000 73152000
" />
<path d="M203200000 66548000
L167975677 66548000
" />
<path d="M147828000 87884000
L147828000 86868000
" />
<path d="M173050200 84430323
L171601677 84430323
" />
<path d="M139192000 83312000
L145796000 83312000
" />
<path d="M208965800 70653523
L207305523 70653523
" />
<path d="M137160000 75184000
L137160000 81280000
" />
<path d="M202946000 118872000
L209804000 118872000
" />
<path d="M147828000 85344000
L147828000 86868000
" />
<path d="M167975677 66548000
L156291677 78232000
" />
<path d="M207305523 70653523
L203200000 66548000
" />
<path d="M171601677 84430323
L166116000 89916000
" />
<path d="M145796000 83312000
L147828000 85344000
" />
<path d="M139192000 73152000
L137160000 75184000
" />
<path d="M137160000 81280000
L139192000 83312000
" />
<path d="M156291677 75011677
L154432000 73152000
" />
<path d="M211836000 72644000
L209845523 70653523
" />
<path d="M211836000 116840000
L211836000 72644000
" />
<path d="M149860000 89916000
L147828000 87884000
" />
<path d="M209804000 118872000
L211836000 116840000
" />
<path d="M166116000 89916000
L149860000 89916000
" />
<path d="M209845523 70653523
L208965800 70653523
" />
<path d="M96104323 106772323
L98577400 106772323
" />
<path d="M94488000 86360000
L91948000 88900000
" />
<path d="M116865400 83404323
L115223677 83404323
" />
<path d="M98993077 107188000
L98577400 106772323
" />
<path d="M115223677 83404323
L112268000 86360000
" />
<path d="M91948000 88900000
L91948000 102616000
" />
<path d="M91948000 102616000
L96104323 106772323
" />
<path d="M112268000 86360000
L94488000 86360000
" />
<path d="M104728000 107188000
L98993077 107188000
" />
<path d="M112801400 79340323
L116865400 83404323
" />
<path d="M94767400 91160600
L97028000 88900000
" />
<path d="M97028000 88900000
L104073077 88900000
" />
<path d="M94767400 98136323
L94767400 91160600
" />
<path d="M104073077 88900000
L112801400 97628323
" />
<path d="M116865400 93564323
L112801400 97628323
" />
<path d="M109728000 104714923
L102641400 97628323
" />
<path d="M99983677 116932323
L109728000 107188000
" />
<path d="M107721400 122520323
L104165400 122520323
" />
<path d="M109728000 107188000
L109728000 104714923
" />
<path d="M98577400 116932323
L99983677 116932323
" />
<path d="M102641400 97120323
L99085400 93564323
" />
<path d="M102641400 97628323
L102641400 97120323
" />
<path d="M104165400 122520323
L98577400 116932323
" />
<path d="M176173677 86970323
L178308000 84836000
" />
<path d="M178308000 84836000
L178308000 80772000
" />
<path d="M180958877 78121123
L183464200 78121123
" />
<path d="M178308000 80772000
L180958877 78121123
" />
<path d="M173050200 86970323
L176173677 86970323
" />
<path d="M192786000 118872000
L192786000 118110000
" />
<path d="M191008000 96520000
L187849123 93361123
" />
<path d="M192786000 118110000
L191008000 116332000
" />
<path d="M187849123 93361123
L183464200 93361123
" />
<path d="M191008000 116332000
L191008000 96520000
" />
<path d="M196993123 80661123
L183464200 80661123
" />
<path d="M200406000 118872000
L200406000 117602000
" />
<path d="M199136000 82804000
L196993123 80661123
" />
<path d="M199136000 116332000
L199136000 82804000
" />
<path d="M200406000 117602000
L199136000 116332000
" />
<path d="M195326000 118872000
L195326000 118110000
" />
<path d="M194564000 94996000
L190389123 90821123
" />
<path d="M194564000 117348000
L194564000 94996000
" />
<path d="M195326000 118110000
L194564000 117348000
" />
<path d="M190389123 90821123
L183464200 90821123
" />
<path d="M193945123 88281123
L183464200 88281123
" />
<path d="M197866000 117602000
L197104000 116840000
" />
<path d="M197104000 116840000
L197104000 91440000
" />
<path d="M197866000 118872000
L197866000 117602000
" />
<path d="M197104000 91440000
L193945123 88281123
" />
</g>
<g style="fill:#000000; fill-opacity:0.0; 
stroke:#000000; stroke-width:2000000.000000; stroke-opacity:1; 
stroke-linecap:round; stroke-linejoin:round;">
<path d="M72161400 97628323
L81559400 97628323
" />
<path d="M81559400 97628323
L82067400 98136323
" />
</g>
<g style="fill:#000000; fill-opacity:0.0; 
stroke:#000000; stroke-width:1200000.000000; stroke-opacity:1; 
stroke-linecap:round; stroke-linejoin:round;">
<path d="M110515400 114646323
L107721400 117440323
" />
<path d="M115849400 114646323
L110515400 114646323
" />
</g>
<g >
</g>
</g> 
</svg>
