<?xml version="1.0" standalone="no"?>
 <!DOCTYPE svg PUBLIC "-//W3C//DTD SVG 1.1//EN" 
 "http://www.w3.org/Graphics/SVG/1.1/DTD/svg11.dtd"> 
<svg
  xmlns:svg="http://www.w3.org/2000/svg"
  xmlns="http://www.w3.org/2000/svg"
  xmlns:xlink="http://www.w3.org/1999/xlink"
  version="1.1"
  width="29.700220cm" height="21.000720cm" viewBox="0 0 297002200 210007200">
<title>SVG Picture created as mushroomFarmKiCAD-F_Silkscreen.svg date 2022/12/14 21:52:06 </title>
  <desc>Picture generated by PCBNEW </desc>
<g style="fill:#000000; fill-opacity:1.000000;stroke:#000000; stroke-opacity:1.000000;
stroke-linecap:round; stroke-linejoin:round;"
 transform="translate(0 0) scale(1 1)">
</g>
<g style="fill:#000000; fill-opacity:0.0; 
stroke:#000000; stroke-width:0.000000; stroke-opacity:1; 
stroke-linecap:round; stroke-linejoin:round;">
</g>
<g style="fill:#000000; fill-opacity:0.0; 
stroke:#000000; stroke-width:850000.000000; stroke-opacity:1; 
stroke-linecap:round; stroke-linejoin:round;">
<text x="159004000.000000" y="127976000.000000"
textLength="65238096.000000" font-size="6666666.000000" lengthAdjust="spacingAndGlyphs"
text-anchor="middle" opacity="0">MUSHROOM FARM</text>
<g class="stroked-text"><desc>MUSHROOM FARM</desc>
<path d="M127575428 127737904
L127575428 122737904
L129242095 126309333
L130908761 122737904
L130908761 127737904
" />
<path d="M133289714 122737904
L133289714 126785523
L133527809 127261714
L133765904 127499809
L134242095 127737904
L135194476 127737904
L135670666 127499809
L135908761 127261714
L136146857 126785523
L136146857 122737904
" />
<path d="M138289714 127499809
L139004000 127737904
L140194476 127737904
L140670666 127499809
L140908761 127261714
L141146857 126785523
L141146857 126309333
L140908761 125833142
L140670666 125595047
L140194476 125356952
L139242095 125118857
L138765904 124880761
L138527809 124642666
L138289714 124166476
L138289714 123690285
L138527809 123214095
L138765904 122976000
L139242095 122737904
L140432571 122737904
L141146857 122976000
" />
<path d="M143289714 127737904
L143289714 122737904
" />
<path d="M143289714 125118857
L146146857 125118857
" />
<path d="M146146857 127737904
L146146857 122737904
" />
<path d="M151384952 127737904
L149718285 125356952
" />
<path d="M148527809 127737904
L148527809 122737904
L150432571 122737904
L150908761 122976000
L151146857 123214095
L151384952 123690285
L151384952 124404571
L151146857 124880761
L150908761 125118857
L150432571 125356952
L148527809 125356952
" />
<path d="M154480190 122737904
L155432571 122737904
L155908761 122976000
L156384952 123452190
L156623047 124404571
L156623047 126071238
L156384952 127023619
L155908761 127499809
L155432571 127737904
L154480190 127737904
L154004000 127499809
L153527809 127023619
L153289714 126071238
L153289714 124404571
L153527809 123452190
L154004000 122976000
L154480190 122737904
" />
<path d="M159718285 122737904
L160670666 122737904
L161146857 122976000
L161623047 123452190
L161861142 124404571
L161861142 126071238
L161623047 127023619
L161146857 127499809
L160670666 127737904
L159718285 127737904
L159242095 127499809
L158765904 127023619
L158527809 126071238
L158527809 124404571
L158765904 123452190
L159242095 122976000
L159718285 122737904
" />
<path d="M164004000 127737904
L164004000 122737904
L165670666 126309333
L167337333 122737904
L167337333 127737904
" />
<path d="M175194476 125118857
L173527809 125118857
" />
<path d="M173527809 127737904
L173527809 122737904
L175908761 122737904
" />
<path d="M177575428 126309333
L179956380 126309333
" />
<path d="M177099238 127737904
L178765904 122737904
L180432571 127737904
" />
<path d="M184956380 127737904
L183289714 125356952
" />
<path d="M182099238 127737904
L182099238 122737904
L184004000 122737904
L184480190 122976000
L184718285 123214095
L184956380 123690285
L184956380 124404571
L184718285 124880761
L184480190 125118857
L184004000 125356952
L182099238 125356952
" />
<path d="M187099238 127737904
L187099238 122737904
L188765904 126309333
L190432571 122737904
L190432571 127737904
" />
</g></g>
<g style="fill:#000000; fill-opacity:0.0; 
stroke:#000000; stroke-width:150000.000000; stroke-opacity:1; 
stroke-linecap:round; stroke-linejoin:round;">
<g transform="rotate(-90.000000 103951400.000000 119980323.000000)">
<text x="103951400.000000" y="120480323.000000"
textLength="3105000.000000" font-size="1333333.000000" lengthAdjust="spacingAndGlyphs"
text-anchor="middle" opacity="0">U3</text>
</g>
<g class="stroked-text"><desc>U3</desc>
<path d="M103403780 120742227
L104213304 120742227
L104308542 120694608
L104356161 120646989
L104403780 120551751
L104403780 120361275
L104356161 120266037
L104308542 120218418
L104213304 120170799
L103403780 120170799
" />
<path d="M103403780 119789846
L103403780 119170799
L103784733 119504132
L103784733 119361275
L103832352 119266037
L103879971 119218418
L103975209 119170799
L104213304 119170799
L104308542 119218418
L104356161 119266037
L104403780 119361275
L104403780 119646989
L104356161 119742227
L104308542 119789846
" />
</g><text x="173050200.000000" y="82600323.000000"
textLength="1909286.000000" font-size="1333333.000000" lengthAdjust="spacingAndGlyphs"
text-anchor="middle" opacity="0">J3</text>
<g class="stroked-text"><desc>J3</desc>
<path d="M172716866 81552703
L172716866 82266989
L172669247 82409846
L172574009 82505084
L172431152 82552703
L172335914 82552703
" />
<path d="M173097819 81552703
L173716866 81552703
L173383533 81933656
L173526390 81933656
L173621628 81981275
L173669247 82028894
L173716866 82124132
L173716866 82362227
L173669247 82457465
L173621628 82505084
L173526390 82552703
L173240676 82552703
L173145438 82505084
L173097819 82457465
" />
</g><g transform="rotate(-90.000000 64961400.000000 97628323.000000)">
<text x="64961400.000000" y="98128323.000000"
textLength="1909286.000000" font-size="1333333.000000" lengthAdjust="spacingAndGlyphs"
text-anchor="middle" opacity="0">J1</text>
</g>
<g class="stroked-text"><desc>J1</desc>
<path d="M64413780 97961656
L65128066 97961656
L65270923 98009275
L65366161 98104513
L65413780 98247370
L65413780 98342608
" />
<path d="M65413780 96961656
L65413780 97533084
" />
<path d="M65413780 97247370
L64413780 97247370
L64556638 97342608
L64651876 97437846
L64699495 97533084
" />
</g><text x="183464200.000000" y="68671123.000000"
textLength="1909286.000000" font-size="1333333.000000" lengthAdjust="spacingAndGlyphs"
text-anchor="middle" opacity="0">J4</text>
<g class="stroked-text"><desc>J4</desc>
<path d="M183130866 67623503
L183130866 68337789
L183083247 68480646
L182988009 68575884
L182845152 68623503
L182749914 68623503
" />
<path d="M184035628 67956837
L184035628 68623503
" />
<path d="M183797533 67575884
L183559438 68290170
L184178485 68290170
" />
</g><g transform="rotate(-90.000000 114395400.000000 88484323.000000)">
<text x="114395400.000000" y="88984323.000000"
textLength="2147381.000000" font-size="1333333.000000" lengthAdjust="spacingAndGlyphs"
text-anchor="middle" opacity="0">D2</text>
</g>
<g class="stroked-text"><desc>D2</desc>
<path d="M114847780 89222418
L113847780 89222418
L113847780 88984323
L113895400 88841465
L113990638 88746227
L114085876 88698608
L114276352 88650989
L114419209 88650989
L114609685 88698608
L114704923 88746227
L114800161 88841465
L114847780 88984323
L114847780 89222418
" />
<path d="M113943019 88270037
L113895400 88222418
L113847780 88127180
L113847780 87889084
L113895400 87793846
L113943019 87746227
L114038257 87698608
L114133495 87698608
L114276352 87746227
L114847780 88317656
L114847780 87698608
" />
</g><g transform="rotate(-90.000000 114765400.000000 93564323.000000)">
<text x="114765400.000000" y="94064323.000000"
textLength="1195000.000000" font-size="1333333.000000" lengthAdjust="spacingAndGlyphs"
text-anchor="middle" opacity="0">K</text>
</g>
<g class="stroked-text"><desc>K</desc>
<path d="M115217780 93826227
L114217780 93826227
" />
<path d="M115217780 93254799
L114646352 93683370
" />
<path d="M114217780 93254799
L114789209 93826227
" />
</g><text x="145288000.000000" y="83598000.000000"
textLength="2195000.000000" font-size="1333333.000000" lengthAdjust="spacingAndGlyphs"
text-anchor="middle" opacity="0">U2</text>
<g class="stroked-text"><desc>U2</desc>
<path d="M144526095 82550380
L144526095 83359904
L144573714 83455142
L144621333 83502761
L144716571 83550380
L144907047 83550380
L145002285 83502761
L145049904 83455142
L145097523 83359904
L145097523 82550380
" />
<path d="M145526095 82645619
L145573714 82598000
L145668952 82550380
L145907047 82550380
L146002285 82598000
L146049904 82645619
L146097523 82740857
L146097523 82836095
L146049904 82978952
L145478476 83550380
L146097523 83550380
" />
</g><g transform="rotate(-90.000000 205276000.000000 118872000.000000)">
<text x="205276000.000000" y="119372000.000000"
textLength="1909286.000000" font-size="1333333.000000" lengthAdjust="spacingAndGlyphs"
text-anchor="middle" opacity="0">J2</text>
</g>
<g class="stroked-text"><desc>J2</desc>
<path d="M204728380 119205333
L205442666 119205333
L205585523 119252952
L205680761 119348190
L205728380 119491047
L205728380 119586285
" />
<path d="M204823619 118776761
L204776000 118729142
L204728380 118633904
L204728380 118395809
L204776000 118300571
L204823619 118252952
L204918857 118205333
L205014095 118205333
L205156952 118252952
L205728380 118824380
L205728380 118205333
" />
</g><g transform="rotate(-90.000000 79587400.000000 86960323.000000)">
<text x="79587400.000000" y="87460323.000000"
textLength="2147381.000000" font-size="1333333.000000" lengthAdjust="spacingAndGlyphs"
text-anchor="middle" opacity="0">C2</text>
</g>
<g class="stroked-text"><desc>C2</desc>
<path d="M79944542 87126989
L79992161 87174608
L80039780 87317465
L80039780 87412703
L79992161 87555561
L79896923 87650799
L79801685 87698418
L79611209 87746037
L79468352 87746037
L79277876 87698418
L79182638 87650799
L79087400 87555561
L79039780 87412703
L79039780 87317465
L79087400 87174608
L79135019 87126989
" />
<path d="M79135019 86746037
L79087400 86698418
L79039780 86603180
L79039780 86365084
L79087400 86269846
L79135019 86222227
L79230257 86174608
L79325495 86174608
L79468352 86222227
L80039780 86793656
L80039780 86174608
" />
</g><text x="208965800.000000" y="68823523.000000"
textLength="1909286.000000" font-size="1333333.000000" lengthAdjust="spacingAndGlyphs"
text-anchor="middle" opacity="0">J5</text>
<g class="stroked-text"><desc>J5</desc>
<path d="M208632466 67775903
L208632466 68490189
L208584847 68633046
L208489609 68728284
L208346752 68775903
L208251514 68775903
" />
<path d="M209584847 67775903
L209108657 67775903
L209061038 68252094
L209108657 68204475
L209203895 68156856
L209441990 68156856
L209537228 68204475
L209584847 68252094
L209632466 68347332
L209632466 68585427
L209584847 68680665
L209537228 68728284
L209441990 68775903
L209203895 68775903
L209108657 68728284
L209061038 68680665
" />
</g><g transform="rotate(-90.000000 142206800.000000 105882872.000000)">
<text x="142206800.000000" y="106382872.000000"
textLength="2147381.000000" font-size="1333333.000000" lengthAdjust="spacingAndGlyphs"
text-anchor="middle" opacity="0">C1</text>
</g>
<g class="stroked-text"><desc>C1</desc>
<path d="M142563942 106049538
L142611561 106097157
L142659180 106240014
L142659180 106335252
L142611561 106478110
L142516323 106573348
L142421085 106620967
L142230609 106668586
L142087752 106668586
L141897276 106620967
L141802038 106573348
L141706800 106478110
L141659180 106335252
L141659180 106240014
L141706800 106097157
L141754419 106049538
" />
<path d="M142659180 105097157
L142659180 105668586
" />
<path d="M142659180 105382872
L141659180 105382872
L141802038 105478110
L141897276 105573348
L141944895 105668586
" />
</g><g transform="rotate(-90.000000 160174000.000000 105288323.000000)">
<text x="160174000.000000" y="105788323.000000"
textLength="2147381.000000" font-size="1333333.000000" lengthAdjust="spacingAndGlyphs"
text-anchor="middle" opacity="0">C4</text>
</g>
<g class="stroked-text"><desc>C4</desc>
<path d="M160531142 105454989
L160578761 105502608
L160626380 105645465
L160626380 105740703
L160578761 105883561
L160483523 105978799
L160388285 106026418
L160197809 106074037
L160054952 106074037
L159864476 106026418
L159769238 105978799
L159674000 105883561
L159626380 105740703
L159626380 105645465
L159674000 105502608
L159721619 105454989
" />
<path d="M159959714 104597846
L160626380 104597846
" />
<path d="M159578761 104835942
L160293047 105074037
L160293047 104454989
" />
</g><text x="153791677.000000" y="84982000.000000"
textLength="2147381.000000" font-size="1333333.000000" lengthAdjust="spacingAndGlyphs"
text-anchor="middle" opacity="0">C5</text>
<g class="stroked-text"><desc>C5</desc>
<path d="M153625010 84839142
L153577391 84886761
L153434534 84934380
L153339296 84934380
L153196438 84886761
L153101200 84791523
L153053581 84696285
L153005962 84505809
L153005962 84362952
L153053581 84172476
L153101200 84077238
L153196438 83982000
L153339296 83934380
L153434534 83934380
L153577391 83982000
L153625010 84029619
" />
<path d="M154529772 83934380
L154053581 83934380
L154005962 84410571
L154053581 84362952
L154148819 84315333
L154386915 84315333
L154482153 84362952
L154529772 84410571
L154577391 84505809
L154577391 84743904
L154529772 84839142
L154482153 84886761
L154386915 84934380
L154148819 84934380
L154053581 84886761
L154005962 84839142
" />
</g><text x="145262600.000000" y="90679123.000000"
textLength="2195000.000000" font-size="1333333.000000" lengthAdjust="spacingAndGlyphs"
text-anchor="middle" opacity="0">U1</text>
<g class="stroked-text"><desc>U1</desc>
<path d="M144500695 89631503
L144500695 90441027
L144548314 90536265
L144595933 90583884
L144691171 90631503
L144881647 90631503
L144976885 90583884
L145024504 90536265
L145072123 90441027
L145072123 89631503
" />
<path d="M146072123 90631503
L145500695 90631503
" />
<path d="M145786409 90631503
L145786409 89631503
L145691171 89774361
L145595933 89869599
L145500695 89917218
" />
</g><g transform="rotate(-90.000000 86513400.000000 85944323.000000)">
<text x="86513400.000000" y="86444323.000000"
textLength="2147381.000000" font-size="1333333.000000" lengthAdjust="spacingAndGlyphs"
text-anchor="middle" opacity="0">R1</text>
</g>
<g class="stroked-text"><desc>R1</desc>
<path d="M86965780 86110989
L86489590 86444323
" />
<path d="M86965780 86682418
L85965780 86682418
L85965780 86301465
L86013400 86206227
L86061019 86158608
L86156257 86110989
L86299114 86110989
L86394352 86158608
L86441971 86206227
L86489590 86301465
L86489590 86682418
" />
<path d="M86965780 85158608
L86965780 85730037
" />
<path d="M86965780 85444323
L85965780 85444323
L86108638 85539561
L86203876 85634799
L86251495 85730037
" />
</g><text x="107721400.000000" y="95658323.000000"
textLength="2147381.000000" font-size="1333333.000000" lengthAdjust="spacingAndGlyphs"
text-anchor="middle" opacity="0">D4</text>
<g class="stroked-text"><desc>D4</desc>
<path d="M106983304 95610703
L106983304 94610703
L107221400 94610703
L107364257 94658323
L107459495 94753561
L107507114 94848799
L107554733 95039275
L107554733 95182132
L107507114 95372608
L107459495 95467846
L107364257 95563084
L107221400 95610703
L106983304 95610703
" />
<path d="M108411876 94944037
L108411876 95610703
" />
<path d="M108173780 94563084
L107935685 95277370
L108554733 95277370
" />
</g><text x="102641400.000000" y="96028323.000000"
textLength="1195000.000000" font-size="1333333.000000" lengthAdjust="spacingAndGlyphs"
text-anchor="middle" opacity="0">K</text>
<g class="stroked-text"><desc>K</desc>
<path d="M102379495 95980703
L102379495 94980703
" />
<path d="M102950923 95980703
L102522352 95409275
" />
<path d="M102950923 94980703
L102379495 95552132
" />
</g><g transform="rotate(-90.000000 112929400.000000 108296323.000000)">
<text x="112929400.000000" y="108796323.000000"
textLength="2147381.000000" font-size="1333333.000000" lengthAdjust="spacingAndGlyphs"
text-anchor="middle" opacity="0">R3</text>
</g>
<g class="stroked-text"><desc>R3</desc>
<path d="M113381780 108462989
L112905590 108796323
" />
<path d="M113381780 109034418
L112381780 109034418
L112381780 108653465
L112429400 108558227
L112477019 108510608
L112572257 108462989
L112715114 108462989
L112810352 108510608
L112857971 108558227
L112905590 108653465
L112905590 109034418
" />
<path d="M112381780 108129656
L112381780 107510608
L112762733 107843942
L112762733 107701084
L112810352 107605846
L112857971 107558227
L112953209 107510608
L113191304 107510608
L113286542 107558227
L113334161 107605846
L113381780 107701084
L113381780 107986799
L113334161 108082037
L113286542 108129656
" />
</g><g transform="rotate(-90.000000 96107400.000000 111852323.000000)">
<text x="96107400.000000" y="112352323.000000"
textLength="2147381.000000" font-size="1333333.000000" lengthAdjust="spacingAndGlyphs"
text-anchor="middle" opacity="0">D5</text>
</g>
<g class="stroked-text"><desc>D5</desc>
<path d="M96559780 112590418
L95559780 112590418
L95559780 112352323
L95607400 112209465
L95702638 112114227
L95797876 112066608
L95988352 112018989
L96131209 112018989
L96321685 112066608
L96416923 112114227
L96512161 112209465
L96559780 112352323
L96559780 112590418
" />
<path d="M95559780 111114227
L95559780 111590418
L96035971 111638037
L95988352 111590418
L95940733 111495180
L95940733 111257084
L95988352 111161846
L96035971 111114227
L96131209 111066608
L96369304 111066608
L96464542 111114227
L96512161 111161846
L96559780 111257084
L96559780 111495180
L96512161 111590418
L96464542 111638037
" />
</g><g transform="rotate(-90.000000 96477400.000000 116932323.000000)">
<text x="96477400.000000" y="117432323.000000"
textLength="1195000.000000" font-size="1333333.000000" lengthAdjust="spacingAndGlyphs"
text-anchor="middle" opacity="0">K</text>
</g>
<g class="stroked-text"><desc>K</desc>
<path d="M96929780 117194227
L95929780 117194227
" />
<path d="M96929780 116622799
L96358352 117051370
" />
<path d="M95929780 116622799
L96501209 117194227
" />
</g><g transform="rotate(-90.000000 96615400.000000 88484323.000000)">
<text x="96615400.000000" y="88984323.000000"
textLength="2147381.000000" font-size="1333333.000000" lengthAdjust="spacingAndGlyphs"
text-anchor="middle" opacity="0">D3</text>
</g>
<g class="stroked-text"><desc>D3</desc>
<path d="M97067780 89222418
L96067780 89222418
L96067780 88984323
L96115400 88841465
L96210638 88746227
L96305876 88698608
L96496352 88650989
L96639209 88650989
L96829685 88698608
L96924923 88746227
L97020161 88841465
L97067780 88984323
L97067780 89222418
" />
<path d="M96067780 88317656
L96067780 87698608
L96448733 88031942
L96448733 87889084
L96496352 87793846
L96543971 87746227
L96639209 87698608
L96877304 87698608
L96972542 87746227
L97020161 87793846
L97067780 87889084
L97067780 88174799
L97020161 88270037
L96972542 88317656
" />
</g><g transform="rotate(-90.000000 96985400.000000 93564323.000000)">
<text x="96985400.000000" y="94064323.000000"
textLength="1195000.000000" font-size="1333333.000000" lengthAdjust="spacingAndGlyphs"
text-anchor="middle" opacity="0">K</text>
</g>
<g class="stroked-text"><desc>K</desc>
<path d="M97437780 93826227
L96437780 93826227
" />
<path d="M97437780 93254799
L96866352 93683370
" />
<path d="M96437780 93254799
L97009209 93826227
" />
</g><text x="107721400.000000" y="77370323.000000"
textLength="2147381.000000" font-size="1333333.000000" lengthAdjust="spacingAndGlyphs"
text-anchor="middle" opacity="0">D1</text>
<g class="stroked-text"><desc>D1</desc>
<path d="M106983304 77322703
L106983304 76322703
L107221400 76322703
L107364257 76370323
L107459495 76465561
L107507114 76560799
L107554733 76751275
L107554733 76894132
L107507114 77084608
L107459495 77179846
L107364257 77275084
L107221400 77322703
L106983304 77322703
" />
<path d="M108507114 77322703
L107935685 77322703
" />
<path d="M108221400 77322703
L108221400 76322703
L108126161 76465561
L108030923 76560799
L107935685 76608418
" />
</g><text x="102641400.000000" y="77740323.000000"
textLength="1195000.000000" font-size="1333333.000000" lengthAdjust="spacingAndGlyphs"
text-anchor="middle" opacity="0">K</text>
<g class="stroked-text"><desc>K</desc>
<path d="M102379495 77692703
L102379495 76692703
" />
<path d="M102950923 77692703
L102522352 77121275
" />
<path d="M102950923 76692703
L102379495 77264132
" />
</g><text x="137292323.000000" y="72482000.000000"
textLength="2147381.000000" font-size="1333333.000000" lengthAdjust="spacingAndGlyphs"
text-anchor="middle" opacity="0">C3</text>
<g class="stroked-text"><desc>C3</desc>
<path d="M137125656 72339142
L137078037 72386761
L136935180 72434380
L136839942 72434380
L136697084 72386761
L136601846 72291523
L136554227 72196285
L136506608 72005809
L136506608 71862952
L136554227 71672476
L136601846 71577238
L136697084 71482000
L136839942 71434380
L136935180 71434380
L137078037 71482000
L137125656 71529619
" />
<path d="M137458989 71434380
L138078037 71434380
L137744703 71815333
L137887561 71815333
L137982799 71862952
L138030418 71910571
L138078037 72005809
L138078037 72243904
L138030418 72339142
L137982799 72386761
L137887561 72434380
L137601846 72434380
L137506608 72386761
L137458989 72339142
" />
</g><text x="88417400.000000" y="95716323.000000"
textLength="2147381.000000" font-size="1333333.000000" lengthAdjust="spacingAndGlyphs"
text-anchor="middle" opacity="0">R2</text>
<g class="stroked-text"><desc>R2</desc>
<path d="M88250733 95668703
L87917400 95192513
" />
<path d="M87679304 95668703
L87679304 94668703
L88060257 94668703
L88155495 94716323
L88203114 94763942
L88250733 94859180
L88250733 95002037
L88203114 95097275
L88155495 95144894
L88060257 95192513
L87679304 95192513
" />
<path d="M88631685 94763942
L88679304 94716323
L88774542 94668703
L89012638 94668703
L89107876 94716323
L89155495 94763942
L89203114 94859180
L89203114 94954418
L89155495 95097275
L88584066 95668703
L89203114 95668703
" />
</g><text x="107228000.000000" y="113938000.000000"
textLength="2147381.000000" font-size="1333333.000000" lengthAdjust="spacingAndGlyphs"
text-anchor="middle" opacity="0">C6</text>
<g class="stroked-text"><desc>C6</desc>
<path d="M107061333 113795142
L107013714 113842761
L106870857 113890380
L106775619 113890380
L106632761 113842761
L106537523 113747523
L106489904 113652285
L106442285 113461809
L106442285 113318952
L106489904 113128476
L106537523 113033238
L106632761 112938000
L106775619 112890380
L106870857 112890380
L107013714 112938000
L107061333 112985619
" />
<path d="M107918476 112890380
L107728000 112890380
L107632761 112938000
L107585142 112985619
L107489904 113128476
L107442285 113318952
L107442285 113699904
L107489904 113795142
L107537523 113842761
L107632761 113890380
L107823238 113890380
L107918476 113842761
L107966095 113795142
L108013714 113699904
L108013714 113461809
L107966095 113366571
L107918476 113318952
L107823238 113271333
L107632761 113271333
L107537523 113318952
L107489904 113366571
L107442285 113461809
" />
</g></g>
<g style="fill:#000000; fill-opacity:0.0; 
stroke:#000000; stroke-width:120000.000000; stroke-opacity:1; 
stroke-linecap:round; stroke-linejoin:round;">
<path d="M104951400 114860323
L109692400 114860323
" />
<path d="M109692400 125100323
L109692400 114860323
" />
<path d="M104951400 125100323
L104951400 114860323
" />
<path d="M106491400 125100323
L106491400 114860323
" />
<path d="M104951400 125100323
L109692400 125100323
" />
<path d="M171720200 85700323
L174380200 85700323
" />
<path d="M171720200 93380323
L174380200 93380323
" />
<path d="M171720200 84430323
L171720200 83100323
" />
<path d="M171720200 83100323
L173050200 83100323
" />
<path d="M171720200 85700323
L171720200 93380323
" />
<path d="M174380200 85700323
L174380200 93380323
" />
<path d="M66041400 100248323
L66041400 90008323
" />
<path d="M66041400 90008323
L78781400 90008323
" />
<path d="M66041400 100248323
L66041400 90008323
" />
<path d="M66041400 100248323
L78781400 100248323
" />
<path d="M78781400 100248323
L78781400 90008323
" />
<path d="M78781400 100248323
L78781400 90008323
" />
<path d="M66041400 90008323
L78781400 90008323
" />
<path d="M68661400 100628323
L65661400 100628323
" />
<path d="M66041400 100248323
L78781400 100248323
" />
<path d="M65661400 100628323
L65661400 97628323
" />
<path d="M182134200 69171123
L183464200 69171123
" />
<path d="M182134200 107391123
L184794200 107391123
" />
<path d="M182134200 70501123
L182134200 69171123
" />
<path d="M182134200 71771123
L182134200 107391123
" />
<path d="M182134200 71771123
L184794200 71771123
" />
<path d="M184794200 71771123
L184794200 107391123
" />
<path d="M115395400 85764323
L115395400 91204323
" />
<path d="M118335400 85764323
L115395400 85764323
" />
<path d="M116865400 92224323
L116865400 91204323
" />
<path d="M115395400 90184323
L118335400 90184323
" />
<path d="M115395400 91204323
L118335400 91204323
" />
<path d="M118335400 91204323
L118335400 85764323
" />
<path d="M115395400 90304323
L118335400 90304323
" />
<path d="M115395400 90424323
L118335400 90424323
" />
<path d="M116865400 84744323
L116865400 85764323
" />
<path d="M150408000 84098000
L150408000 88839000
" />
<path d="M140168000 84098000
L140168000 88839000
" />
<path d="M140168000 85638000
L150408000 85638000
" />
<path d="M140168000 84098000
L150408000 84098000
" />
<path d="M140168000 88839000
L150408000 88839000
" />
<path d="M202946000 117542000
L204276000 117542000
" />
<path d="M204276000 117542000
L204276000 118872000
" />
<path d="M201676000 117542000
L188916000 117542000
" />
<path d="M188916000 117542000
L188916000 120202000
" />
<path d="M201676000 120202000
L188916000 120202000
" />
<path d="M201676000 117542000
L201676000 120202000
" />
<path d="M80717400 78840323
L85957400 78840323
" />
<path d="M80717400 95080323
L80717400 78840323
" />
<path d="M85957400 95080323
L85957400 78840323
" />
<path d="M80717400 95080323
L85957400 95080323
" />
<path d="M207635800 107543523
L210295800 107543523
" />
<path d="M210295800 71923523
L210295800 107543523
" />
<path d="M207635800 71923523
L210295800 71923523
" />
<path d="M207635800 70653523
L207635800 69323523
" />
<path d="M207635800 71923523
L207635800 107543523
" />
<path d="M207635800 69323523
L208965800 69323523
" />
<path d="M135916800 108163872
L133564800 108163872
" />
<path d="M141013800 106322872
L132899800 106322872
" />
<path d="M140265800 108283872
L137996800 108283872
" />
<path d="M140761800 107363872
L137996800 107363872
" />
<path d="M139939800 108683872
L137996800 108683872
" />
<path d="M135916800 106803872
L132980800 106803872
" />
<path d="M135916800 108443872
L133767800 108443872
" />
<path d="M140923800 106843872
L137996800 106843872
" />
<path d="M135916800 107203872
L133093800 107203872
" />
<path d="M140622800 107683872
L137996800 107683872
" />
<path d="M135916800 108803872
L134089800 108803872
" />
<path d="M137904800 109883872
L136008800 109883872
" />
<path d="M138508800 109683872
L135404800 109683872
" />
<path d="M135916800 107243872
L133106800 107243872
" />
<path d="M135916800 107283872
L133121800 107283872
" />
<path d="M138687800 109603872
L135225800 109603872
" />
<path d="M140400800 108083872
L137996800 108083872
" />
<path d="M135916800 108323872
L133676800 108323872
" />
<path d="M140678800 107563872
L137996800 107563872
" />
<path d="M135916800 107763872
L133329800 107763872
" />
<path d="M141008800 106362872
L132904800 106362872
" />
<path d="M140080800 108523872
L137996800 108523872
" />
<path d="M141036800 105882872
L132876800 105882872
" />
<path d="M135916800 108483872
L133800800 108483872
" />
<path d="M139271800 101473174
L139271800 102273174
" />
<path d="M140696800 107523872
L137996800 107523872
" />
<path d="M140603800 107723872
L137996800 107723872
" />
<path d="M135916800 108283872
L133647800 108283872
" />
<path d="M140966800 106643872
L132946800 106643872
" />
<path d="M137724800 109923872
L136188800 109923872
" />
<path d="M140540800 107843872
L137996800 107843872
" />
<path d="M139058800 109403872
L134854800 109403872
" />
<path d="M135916800 108123872
L133538800 108123872
" />
<path d="M135916800 108243872
L133618800 108243872
" />
<path d="M140980800 106562872
L132932800 106562872
" />
<path d="M140294800 108243872
L137996800 108243872
" />
<path d="M141021800 106242872
L132891800 106242872
" />
<path d="M135916800 107483872
L133199800 107483872
" />
<path d="M135916800 107403872
L133166800 107403872
" />
<path d="M140348800 108163872
L137996800 108163872
" />
<path d="M135916800 107123872
L133067800 107123872
" />
<path d="M135916800 106883872
L132999800 106883872
" />
<path d="M139560800 109043872
L134352800 109043872
" />
<path d="M135916800 107043872
L133042800 107043872
" />
<path d="M135916800 108643872
L133937800 108643872
" />
<path d="M135916800 108763872
L134049800 108763872
" />
<path d="M135916800 108043872
L133487800 108043872
" />
<path d="M139184800 109323872
L134728800 109323872
" />
<path d="M140881800 107003872
L137996800 107003872
" />
<path d="M139975800 108643872
L137996800 108643872
" />
<path d="M139301800 109243872
L134611800 109243872
" />
<path d="M135916800 107363872
L133151800 107363872
" />
<path d="M140993800 106482872
L132919800 106482872
" />
<path d="M135916800 107723872
L133309800 107723872
" />
<path d="M139122800 109363872
L134790800 109363872
" />
<path d="M140321800 108203872
L137996800 108203872
" />
<path d="M141030800 106122872
L132882800 106122872
" />
<path d="M139671800 101873174
L138871800 101873174
" />
<path d="M140562800 107803872
L137996800 107803872
" />
<path d="M135916800 106963872
L133020800 106963872
" />
<path d="M140858800 107083872
L137996800 107083872
" />
<path d="M140791800 107283872
L137996800 107283872
" />
<path d="M135916800 107923872
L133416800 107923872
" />
<path d="M141027800 106162872
L132885800 106162872
" />
<path d="M135916800 108003872
L133463800 108003872
" />
<path d="M135916800 108203872
L133591800 108203872
" />
<path d="M135916800 107523872
L133216800 107523872
" />
<path d="M135916800 106923872
L133009800 106923872
" />
<path d="M140941800 106763872
L137996800 106763872
" />
<path d="M140046800 108563872
L137996800 108563872
" />
<path d="M140713800 107483872
L137996800 107483872
" />
<path d="M135916800 107323872
L133135800 107323872
" />
<path d="M138302800 109763872
L135610800 109763872
" />
<path d="M140870800 107043872
L137996800 107043872
" />
<path d="M141036800 105922872
L132876800 105922872
" />
<path d="M140583800 107763872
L137996800 107763872
" />
<path d="M141033800 106042872
L132879800 106042872
" />
<path d="M140819800 107203872
L137996800 107203872
" />
<path d="M135916800 108723872
L134011800 108723872
" />
<path d="M135916800 108523872
L133832800 108523872
" />
<path d="M135916800 107963872
L133439800 107963872
" />
<path d="M139607800 109003872
L134305800 109003872
" />
<path d="M140998800 106442872
L132914800 106442872
" />
<path d="M141024800 106202872
L132888800 106202872
" />
<path d="M138990800 109443872
L134922800 109443872
" />
<path d="M138601800 109643872
L135311800 109643872
" />
<path d="M140660800 107603872
L137996800 107603872
" />
<path d="M138920800 109483872
L134992800 109483872
" />
<path d="M140913800 106883872
L137996800 106883872
" />
<path d="M139697800 108923872
L134215800 108923872
" />
<path d="M135916800 108083872
L133512800 108083872
" />
<path d="M140833800 107163872
L137996800 107163872
" />
<path d="M141032800 106082872
L132880800 106082872
" />
<path d="M140903800 106923872
L137996800 106923872
" />
<path d="M137489800 109963872
L136423800 109963872
" />
<path d="M139356800 109203872
L134556800 109203872
" />
<path d="M135916800 107603872
L133252800 107603872
" />
<path d="M139243800 109283872
L134669800 109283872
" />
<path d="M141017800 106282872
L132895800 106282872
" />
<path d="M140518800 107883872
L137996800 107883872
" />
<path d="M140777800 107323872
L137996800 107323872
" />
<path d="M139410800 109163872
L134502800 109163872
" />
<path d="M138409800 109723872
L135503800 109723872
" />
<path d="M140236800 108323872
L137996800 108323872
" />
<path d="M140145800 108443872
L137996800 108443872
" />
<path d="M140425800 108043872
L137996800 108043872
" />
<path d="M140892800 106963872
L137996800 106963872
" />
<path d="M135916800 107563872
L133234800 107563872
" />
<path d="M140950800 106723872
L132962800 106723872
" />
<path d="M135916800 107683872
L133290800 107683872
" />
<path d="M135916800 107163872
L133079800 107163872
" />
<path d="M140374800 108123872
L137996800 108123872
" />
<path d="M135916800 107083872
L133054800 107083872
" />
<path d="M140449800 108003872
L137996800 108003872
" />
<path d="M135916800 108603872
L133901800 108603872
" />
<path d="M140473800 107963872
L137996800 107963872
" />
<path d="M140730800 107443872
L137996800 107443872
" />
<path d="M135916800 107803872
L133350800 107803872
" />
<path d="M138846800 109523872
L135066800 109523872
" />
<path d="M139512800 109083872
L134400800 109083872
" />
<path d="M139863800 108763872
L137996800 108763872
" />
<path d="M135916800 107843872
L133372800 107843872
" />
<path d="M140986800 106522872
L132926800 106522872
" />
<path d="M140973800 106603872
L132939800 106603872
" />
<path d="M135916800 108363872
L133706800 108363872
" />
<path d="M140845800 107123872
L137996800 107123872
" />
<path d="M135916800 107883872
L133394800 107883872
" />
<path d="M139782800 108843872
L134130800 108843872
" />
<path d="M135916800 106763872
L132971800 106763872
" />
<path d="M139461800 109123872
L134451800 109123872
" />
<path d="M138769800 109563872
L135143800 109563872
" />
<path d="M140746800 107403872
L137996800 107403872
" />
<path d="M141004800 106402872
L132908800 106402872
" />
<path d="M140642800 107643872
L137996800 107643872
" />
<path d="M140206800 108363872
L137996800 108363872
" />
<path d="M135916800 107003872
L133031800 107003872
" />
<path d="M139653800 108963872
L134259800 108963872
" />
<path d="M140011800 108603872
L137996800 108603872
" />
<path d="M135916800 108683872
L133973800 108683872
" />
<path d="M140806800 107243872
L137996800 107243872
" />
<path d="M139740800 108883872
L134172800 108883872
" />
<path d="M139823800 108803872
L137996800 108803872
" />
<path d="M135916800 107643872
L133270800 107643872
" />
<path d="M135916800 106843872
L132989800 106843872
" />
<path d="M140496800 107923872
L137996800 107923872
" />
<path d="M140176800 108403872
L137996800 108403872
" />
<path d="M140112800 108483872
L137996800 108483872
" />
<path d="M135916800 108403872
L133736800 108403872
" />
<path d="M140932800 106803872
L137996800 106803872
" />
<path d="M139901800 108723872
L137996800 108723872
" />
<path d="M141036800 105962872
L132876800 105962872
" />
<path d="M138054800 109843872
L135858800 109843872
" />
<path d="M135916800 107443872
L133182800 107443872
" />
<path d="M135916800 108563872
L133866800 108563872
" />
<path d="M140958800 106683872
L132954800 106683872
" />
<path d="M138185800 109803872
L135727800 109803872
" />
<path d="M141035800 106002872
L132877800 106002872
" />
<circle cx="136956800.000000" cy="105882872.000000" r="4120000.000000" /> 
<path d="M152683000 108849323
L150284000 108849323
" />
<path d="M158197000 108049323
L155165000 108049323
" />
<path d="M158271000 107929323
L155165000 107929323
" />
<path d="M157913000 108449323
L155165000 108449323
" />
<path d="M158954000 106009323
L148894000 106009323
" />
<path d="M157080000 109289323
L150768000 109289323
" />
<path d="M156799000 99808677
L156799000 100808677
" />
<path d="M158821000 106649323
L155165000 106649323
" />
<path d="M158992000 105648323
L148856000 105648323
" />
<path d="M158862000 106489323
L148986000 106489323
" />
<path d="M156213000 109849323
L151635000 109849323
" />
<path d="M157564000 108849323
L155165000 108849323
" />
<path d="M158774000 106809323
L155165000 106809323
" />
<path d="M152683000 107049323
L149156000 107049323
" />
<path d="M154786000 110329323
L153062000 110329323
" />
<path d="M152683000 106769323
L149062000 106769323
" />
<path d="M152683000 107129323
L149186000 107129323
" />
<path d="M155154000 110249323
L152694000 110249323
" />
<path d="M152683000 107529323
L149360000 107529323
" />
<path d="M152683000 108169323
L149730000 108169323
" />
<path d="M158880000 106409323
L148968000 106409323
" />
<path d="M158319000 107849323
L155165000 107849323
" />
<path d="M157316000 109089323
L150532000 109089323
" />
<path d="M157525000 108889323
L155165000 108889323
" />
<path d="M159004000 105368323
L148844000 105368323
" />
<path d="M157881000 108489323
L155165000 108489323
" />
<path d="M158969000 105888323
L148879000 105888323
" />
<path d="M159003000 105408323
L148845000 105408323
" />
<path d="M152683000 106649323
L149027000 106649323
" />
<path d="M158614000 107249323
L155165000 107249323
" />
<path d="M158004000 108329323
L155165000 108329323
" />
<path d="M152683000 108649323
L150100000 108649323
" />
<path d="M152683000 107329323
L149267000 107329323
" />
<path d="M152683000 106809323
L149074000 106809323
" />
<path d="M157299000 100308677
L156299000 100308677
" />
<path d="M158999000 105528323
L148849000 105528323
" />
<path d="M152683000 106969323
L149127000 106969323
" />
<path d="M158171000 108089323
L155165000 108089323
" />
<path d="M158428000 107649323
L155165000 107649323
" />
<path d="M157360000 109049323
L150488000 109049323
" />
<path d="M152683000 107089323
L149170000 107089323
" />
<path d="M155770000 110049323
L152078000 110049323
" />
<path d="M158692000 107049323
L155165000 107049323
" />
<path d="M158994000 105608323
L148854000 105608323
" />
<path d="M152683000 107929323
L149577000 107929323
" />
<path d="M158871000 106449323
L148977000 106449323
" />
<path d="M152683000 108489323
L149967000 108489323
" />
<path d="M152683000 108089323
L149677000 108089323
" />
<path d="M154523000 110369323
L153325000 110369323
" />
<path d="M152683000 107849323
L149529000 107849323
" />
<path d="M152683000 106689323
L149039000 106689323
" />
<path d="M156434000 109729323
L151414000 109729323
" />
<path d="M152683000 107489323
L149340000 107489323
" />
<path d="M158062000 108249323
L155165000 108249323
" />
<path d="M152683000 106849323
L149087000 106849323
" />
<path d="M156754000 109529323
L151094000 109529323
" />
<path d="M158647000 107169323
L155165000 107169323
" />
<path d="M158842000 106569323
L155165000 106569323
" />
<path d="M157402000 109009323
L155165000 109009323
" />
<path d="M152683000 107289323
L149250000 107289323
" />
<path d="M158145000 108129323
L155165000 108129323
" />
<path d="M157130000 109249323
L150718000 109249323
" />
<path d="M158386000 107729323
L155165000 107729323
" />
<path d="M158735000 106929323
L155165000 106929323
" />
<path d="M157782000 108609323
L155165000 108609323
" />
<path d="M152683000 107769323
L149484000 107769323
" />
<path d="M152683000 108129323
L149703000 108129323
" />
<path d="M152683000 108809323
L150245000 108809323
" />
<path d="M154986000 110289323
L152862000 110289323
" />
<path d="M158034000 108289323
L155165000 108289323
" />
<path d="M157444000 108969323
L155165000 108969323
" />
<path d="M158707000 107009323
L155165000 107009323
" />
<path d="M152683000 106609323
L149017000 106609323
" />
<path d="M157677000 108729323
L155165000 108729323
" />
<path d="M157849000 108529323
L155165000 108529323
" />
<path d="M156633000 109609323
L151215000 109609323
" />
<path d="M158986000 105728323
L148862000 105728323
" />
<path d="M152683000 108889323
L150323000 108889323
" />
<path d="M155302000 110209323
L152546000 110209323
" />
<path d="M152683000 107449323
L149321000 107449323
" />
<path d="M152683000 108689323
L150135000 108689323
" />
<path d="M158527000 107449323
L155165000 107449323
" />
<path d="M158964000 105928323
L148884000 105928323
" />
<path d="M152683000 108769323
L150208000 108769323
" />
<path d="M158090000 108209323
L155165000 108209323
" />
<path d="M158928000 106169323
L148920000 106169323
" />
<path d="M158831000 106609323
L155165000 106609323
" />
<path d="M156363000 109769323
L151485000 109769323
" />
<path d="M158469000 107569323
L155165000 107569323
" />
<path d="M152683000 106889323
L149100000 106889323
" />
<path d="M156869000 109449323
L150979000 109449323
" />
<path d="M152683000 108969323
L150404000 108969323
" />
<path d="M152683000 108049323
L149651000 108049323
" />
<path d="M152683000 108729323
L150171000 108729323
" />
<path d="M152683000 106729323
L149050000 106729323
" />
<path d="M152683000 107609323
L149399000 107609323
" />
<path d="M155666000 110089323
L152182000 110089323
" />
<path d="M158989000 105688323
L148859000 105688323
" />
<path d="M152683000 108009323
L149626000 108009323
" />
<path d="M158545000 107409323
L155165000 107409323
" />
<path d="M152683000 107649323
L149420000 107649323
" />
<path d="M157640000 108769323
L155165000 108769323
" />
<path d="M152683000 106569323
L149006000 106569323
" />
<path d="M155434000 110169323
L152414000 110169323
" />
<path d="M156924000 109409323
L150924000 109409323
" />
<path d="M152683000 107249323
L149234000 107249323
" />
<path d="M158678000 107089323
L155165000 107089323
" />
<path d="M152683000 107009323
L149141000 107009323
" />
<path d="M152683000 108929323
L150363000 108929323
" />
<path d="M152683000 108209323
L149758000 108209323
" />
<path d="M158222000 108009323
L155165000 108009323
" />
<path d="M158118000 108169323
L155165000 108169323
" />
<path d="M152683000 108409323
L149904000 108409323
" />
<path d="M158598000 107289323
L155165000 107289323
" />
<path d="M158761000 106849323
L155165000 106849323
" />
<path d="M152683000 107809323
L149507000 107809323
" />
<path d="M158488000 107529323
L155165000 107529323
" />
<path d="M155868000 110009323
L151980000 110009323
" />
<path d="M158786000 106769323
L155165000 106769323
" />
<path d="M158852000 106529323
L148996000 106529323
" />
<path d="M158959000 105968323
L148889000 105968323
" />
<path d="M152683000 107409323
L149303000 107409323
" />
<path d="M152683000 108329323
L149844000 108329323
" />
<path d="M158942000 106089323
L148906000 106089323
" />
<path d="M152683000 107969323
L149601000 107969323
" />
<path d="M152683000 108529323
L149999000 108529323
" />
<path d="M158889000 106369323
L148959000 106369323
" />
<path d="M157603000 108809323
L155165000 108809323
" />
<path d="M152683000 108449323
L149935000 108449323
" />
<path d="M158631000 107209323
L155165000 107209323
" />
<path d="M157748000 108649323
L155165000 108649323
" />
<path d="M158935000 106129323
L148913000 106129323
" />
<path d="M152683000 107169323
L149201000 107169323
" />
<path d="M155554000 110129323
L152294000 110129323
" />
<path d="M158921000 106209323
L148927000 106209323
" />
<path d="M157944000 108409323
L155165000 108409323
" />
<path d="M157816000 108569323
L155165000 108569323
" />
<path d="M152683000 108569323
L150032000 108569323
" />
<path d="M156289000 109809323
L151559000 109809323
" />
<path d="M157030000 109329323
L150818000 109329323
" />
<path d="M158563000 107369323
L155165000 107369323
" />
<path d="M152683000 106929323
L149113000 106929323
" />
<path d="M152683000 108289323
L149814000 108289323
" />
<path d="M158898000 106329323
L148950000 106329323
" />
<path d="M157485000 108929323
L155165000 108929323
" />
<path d="M158449000 107609323
L155165000 107609323
" />
<path d="M158407000 107689323
L155165000 107689323
" />
<path d="M158295000 107889323
L155165000 107889323
" />
<path d="M152683000 107569323
L149379000 107569323
" />
<path d="M158809000 106689323
L155165000 106689323
" />
<path d="M156813000 109489323
L151035000 109489323
" />
<path d="M157974000 108369323
L155165000 108369323
" />
<path d="M158341000 107809323
L155165000 107809323
" />
<path d="M158508000 107489323
L155165000 107489323
" />
<path d="M157713000 108689323
L155165000 108689323
" />
<path d="M152683000 107889323
L149553000 107889323
" />
<path d="M155961000 109969323
L151887000 109969323
" />
<path d="M152683000 109009323
L150446000 109009323
" />
<path d="M152683000 107369323
L149285000 107369323
" />
<path d="M152683000 107729323
L149462000 107729323
" />
<path d="M158982000 105768323
L148866000 105768323
" />
<path d="M156133000 109889323
L151715000 109889323
" />
<path d="M158662000 107129323
L155165000 107129323
" />
<path d="M152683000 107209323
L149217000 107209323
" />
<path d="M158978000 105808323
L148870000 105808323
" />
<path d="M152683000 108249323
L149786000 108249323
" />
<path d="M158906000 106289323
L148942000 106289323
" />
<path d="M156978000 109369323
L150870000 109369323
" />
<path d="M157271000 109129323
L150577000 109129323
" />
<path d="M159002000 105448323
L148846000 105448323
" />
<path d="M156694000 109569323
L151154000 109569323
" />
<path d="M157225000 109169323
L150623000 109169323
" />
<path d="M158997000 105568323
L148851000 105568323
" />
<path d="M159004000 105328323
L148844000 105328323
" />
<path d="M158364000 107769323
L155165000 107769323
" />
<path d="M156049000 109929323
L151799000 109929323
" />
<path d="M152683000 108369323
L149874000 108369323
" />
<path d="M158581000 107329323
L155165000 107329323
" />
<path d="M158798000 106729323
L155165000 106729323
" />
<path d="M158721000 106969323
L155165000 106969323
" />
<path d="M152683000 108609323
L150066000 108609323
" />
<path d="M158914000 106249323
L148934000 106249323
" />
<path d="M158247000 107969323
L155165000 107969323
" />
<path d="M158974000 105848323
L148874000 105848323
" />
<path d="M158748000 106889323
L155165000 106889323
" />
<path d="M156569000 109649323
L151279000 109649323
" />
<path d="M156503000 109689323
L151345000 109689323
" />
<path d="M152683000 107689323
L149441000 107689323
" />
<path d="M157178000 109209323
L150670000 109209323
" />
<path d="M159001000 105488323
L148847000 105488323
" />
<path d="M159004000 105288323
L148844000 105288323
" />
<path d="M158948000 106049323
L148900000 106049323
" />
<circle cx="153924000.000000" cy="105288323.000000" r="5120000.000000" /> 
<path d="M152270677 76991000
L152270677 73382000
" />
<path d="M150030677 81668000
L150030677 74796000
" />
<path d="M152430677 83129000
L152430677 79473000
" />
<path d="M150630677 76991000
L150630677 74243000
" />
<path d="M150270677 76991000
L150270677 74553000
" />
<path d="M152990677 83250000
L152990677 73214000
" />
<path d="M150070677 76991000
L150070677 74754000
" />
<path d="M150230677 81872000
L150230677 79473000
" />
<path d="M151230677 76991000
L151230677 73837000
" />
<path d="M152070677 76991000
L152070677 73449000
" />
<path d="M149830677 81438000
L149830677 75026000
" />
<path d="M151630677 82835000
L151630677 79473000
" />
<path d="M153311677 83290000
L153311677 73174000
" />
<path d="M150310677 81948000
L150310677 79473000
" />
<path d="M153030677 83256000
L153030677 73208000
" />
<path d="M152150677 83043000
L152150677 79473000
" />
<path d="M153231677 83282000
L153231677 73182000
" />
<path d="M151070677 76991000
L151070677 73934000
" />
<path d="M150910677 82426000
L150910677 79473000
" />
<path d="M150390677 76991000
L150390677 74443000
" />
<path d="M150190677 81833000
L150190677 79473000
" />
<path d="M151150677 76991000
L151150677 73885000
" />
<path d="M149790677 81388000
L149790677 75076000
" />
<path d="M151830677 82922000
L151830677 79473000
" />
<path d="M151630677 76991000
L151630677 73629000
" />
<path d="M152830677 83222000
L152830677 73242000
" />
<path d="M149510677 81002000
L149510677 75462000
" />
<path d="M151350677 82694000
L151350677 79473000
" />
<path d="M151310677 76991000
L151310677 73792000
" />
<path d="M151190677 82603000
L151190677 79473000
" />
<path d="M152350677 76991000
L152350677 73358000
" />
<path d="M152310677 76991000
L152310677 73370000
" />
<path d="M152190677 83056000
L152190677 79473000
" />
<path d="M150350677 76991000
L150350677 74479000
" />
<path d="M152350677 83106000
L152350677 79473000
" />
<path d="M152790677 83214000
L152790677 73250000
" />
<path d="M153351677 83294000
L153351677 73170000
" />
<path d="M150230677 76991000
L150230677 74592000
" />
<path d="M152270677 83082000
L152270677 79473000
" />
<path d="M150150677 76991000
L150150677 74671000
" />
<path d="M149670677 81232000
L149670677 75232000
" />
<path d="M153070677 83262000
L153070677 73202000
" />
<path d="M152910677 83236000
L152910677 73228000
" />
<path d="M152390677 83117000
L152390677 79473000
" />
<path d="M151750677 82889000
L151750677 79473000
" />
<path d="M151470677 76991000
L151470677 73707000
" />
<path d="M151670677 76991000
L151670677 73611000
" />
<path d="M150270677 81911000
L150270677 79473000
" />
<path d="M153511677 83305000
L153511677 73159000
" />
<path d="M152390677 76991000
L152390677 73347000
" />
<path d="M152030677 76991000
L152030677 73464000
" />
<path d="M151790677 76991000
L151790677 73558000
" />
<path d="M151910677 82955000
L151910677 79473000
" />
<path d="M151710677 76991000
L151710677 73593000
" />
<path d="M153111677 83267000
L153111677 73197000
" />
<path d="M150590677 82189000
L150590677 79473000
" />
<path d="M151070677 82530000
L151070677 79473000
" />
<path d="M151430677 76991000
L151430677 73728000
" />
<path d="M151430677 82736000
L151430677 79473000
" />
<path d="M153431677 83300000
L153431677 73164000
" />
<path d="M151470677 82757000
L151470677 79473000
" />
<path d="M152510677 83150000
L152510677 79473000
" />
<path d="M150790677 76991000
L150790677 74122000
" />
<path d="M152630677 83179000
L152630677 73285000
" />
<path d="M151510677 82777000
L151510677 79473000
" />
<path d="M150950677 76991000
L150950677 74011000
" />
<path d="M151230677 82627000
L151230677 79473000
" />
<path d="M150430677 82056000
L150430677 79473000
" />
<path d="M151710677 82871000
L151710677 79473000
" />
<path d="M153631677 83310000
L153631677 73154000
" />
<path d="M149990677 81624000
L149990677 74840000
" />
<path d="M150790677 82342000
L150790677 79473000
" />
<path d="M150510677 82124000
L150510677 79473000
" />
<path d="M149350677 80742000
L149350677 75722000
" />
<path d="M153591677 83309000
L153591677 73155000
" />
<path d="M150750677 76991000
L150750677 74152000
" />
<path d="M149550677 81062000
L149550677 75402000
" />
<path d="M150870677 82398000
L150870677 79473000
" />
<path d="M150910677 76991000
L150910677 74038000
" />
<path d="M153271677 83286000
L153271677 73178000
" />
<path d="M149910677 81533000
L149910677 74931000
" />
<path d="M150390677 82021000
L150390677 79473000
" />
<path d="M152870677 83229000
L152870677 73235000
" />
<path d="M150470677 76991000
L150470677 74374000
" />
<path d="M151590677 82816000
L151590677 79473000
" />
<path d="M152110677 76991000
L152110677 73435000
" />
<path d="M151870677 82939000
L151870677 79473000
" />
<path d="M150070677 81710000
L150070677 79473000
" />
<path d="M151390677 82715000
L151390677 79473000
" />
<path d="M151390677 76991000
L151390677 73749000
" />
<path d="M149230677 80521000
L149230677 75943000
" />
<path d="M150670677 76991000
L150670677 74212000
" />
<path d="M153711677 83312000
L153711677 73152000
" />
<path d="M153471677 83302000
L153471677 73162000
" />
<path d="M150590677 76991000
L150590677 74275000
" />
<path d="M151990677 82986000
L151990677 79473000
" />
<path d="M151950677 76991000
L151950677 73494000
" />
<path d="M150870677 76991000
L150870677 74066000
" />
<path d="M151030677 76991000
L151030677 73959000
" />
<path d="M148710677 78831000
L148710677 77633000
" />
<path d="M151830677 76991000
L151830677 73542000
" />
<path d="M149150677 80357000
L149150677 76107000
" />
<path d="M149750677 81338000
L149750677 75126000
" />
<path d="M152190677 76991000
L152190677 73408000
" />
<path d="M151270677 82649000
L151270677 79473000
" />
<path d="M150670677 82252000
L150670677 79473000
" />
<path d="M151750677 76991000
L151750677 73575000
" />
<path d="M153151677 83272000
L153151677 73192000
" />
<path d="M150710677 82282000
L150710677 79473000
" />
<path d="M153671677 83311000
L153671677 73153000
" />
<path d="M152310677 83094000
L152310677 79473000
" />
<path d="M152030677 83000000
L152030677 79473000
" />
<path d="M150110677 81752000
L150110677 79473000
" />
<path d="M150710677 76991000
L150710677 74182000
" />
<path d="M149430677 80877000
L149430677 75587000
" />
<path d="M152070677 83015000
L152070677 79473000
" />
<path d="M153791677 83312000
L153791677 73152000
" />
<path d="M148790677 79294000
L148790677 77170000
" />
<path d="M150630677 82221000
L150630677 79473000
" />
<path d="M149070677 80176000
L149070677 76288000
" />
<path d="M150990677 76991000
L150990677 73985000
" />
<path d="M151790677 82906000
L151790677 79473000
" />
<path d="M152510677 76991000
L152510677 73314000
" />
<path d="M150830677 76991000
L150830677 74094000
" />
<path d="M150150677 81793000
L150150677 79473000
" />
<path d="M150550677 76991000
L150550677 74307000
" />
<path d="M151350677 76991000
L151350677 73770000
" />
<path d="M150350677 81985000
L150350677 79473000
" />
<path d="M150430677 76991000
L150430677 74408000
" />
<path d="M151310677 82672000
L151310677 79473000
" />
<path d="M149310677 80671000
L149310677 75793000
" />
<path d="M151110677 82555000
L151110677 79473000
" />
<path d="M149110677 80269000
L149110677 76195000
" />
<path d="M159271323 81107000
L158271323 81107000
" />
<path d="M148830677 79462000
L148830677 77002000
" />
<path d="M153191677 83277000
L153191677 73187000
" />
<path d="M151910677 76991000
L151910677 73509000
" />
<path d="M151150677 82579000
L151150677 79473000
" />
<path d="M151950677 82970000
L151950677 79473000
" />
<path d="M158771323 81607000
L158771323 80607000
" />
<path d="M148910677 79742000
L148910677 76722000
" />
<path d="M151870677 76991000
L151870677 73525000
" />
<path d="M150470677 82090000
L150470677 79473000
" />
<path d="M150750677 82312000
L150750677 79473000
" />
<path d="M149270677 80597000
L149270677 75867000
" />
<path d="M149630677 81177000
L149630677 75287000
" />
<path d="M152670677 83188000
L152670677 73276000
" />
<path d="M151030677 82505000
L151030677 79473000
" />
<path d="M151270677 76991000
L151270677 73815000
" />
<path d="M150190677 76991000
L150190677 74631000
" />
<path d="M152150677 76991000
L152150677 73421000
" />
<path d="M148750677 79094000
L148750677 77370000
" />
<path d="M149190677 80441000
L149190677 76023000
" />
<path d="M150510677 76991000
L150510677 74340000
" />
<path d="M151590677 76991000
L151590677 73648000
" />
<path d="M151510677 76991000
L151510677 73687000
" />
<path d="M152950677 83243000
L152950677 73221000
" />
<path d="M152110677 83029000
L152110677 79473000
" />
<path d="M152750677 83206000
L152750677 73258000
" />
<path d="M149870677 81486000
L149870677 74978000
" />
<path d="M149950677 81579000
L149950677 74885000
" />
<path d="M152230677 76991000
L152230677 73395000
" />
<path d="M153751677 83312000
L153751677 73152000
" />
<path d="M151110677 76991000
L151110677 73909000
" />
<path d="M151550677 76991000
L151550677 73668000
" />
<path d="M152590677 83170000
L152590677 73294000
" />
<path d="M152230677 83069000
L152230677 79473000
" />
<path d="M148950677 79862000
L148950677 76602000
" />
<path d="M153391677 83297000
L153391677 73167000
" />
<path d="M151190677 76991000
L151190677 73861000
" />
<path d="M148990677 79974000
L148990677 76490000
" />
<path d="M150550677 82157000
L150550677 79473000
" />
<path d="M151990677 76991000
L151990677 73478000
" />
<path d="M153551677 83307000
L153551677 73157000
" />
<path d="M149470677 80941000
L149470677 75523000
" />
<path d="M149590677 81121000
L149590677 75343000
" />
<path d="M150950677 82453000
L150950677 79473000
" />
<path d="M150830677 82370000
L150830677 79473000
" />
<path d="M152470677 83139000
L152470677 79473000
" />
<path d="M151670677 82853000
L151670677 79473000
" />
<path d="M151550677 82796000
L151550677 79473000
" />
<path d="M152470677 76991000
L152470677 73325000
" />
<path d="M149710677 81286000
L149710677 75178000
" />
<path d="M150310677 76991000
L150310677 74516000
" />
<path d="M152710677 83197000
L152710677 73267000
" />
<path d="M149390677 80811000
L149390677 75653000
" />
<path d="M149030677 80078000
L149030677 76386000
" />
<path d="M150990677 82479000
L150990677 79473000
" />
<path d="M152550677 83160000
L152550677 73304000
" />
<path d="M150110677 76991000
L150110677 74712000
" />
<path d="M148870677 79610000
L148870677 76854000
" />
<path d="M152430677 76991000
L152430677 73335000
" />
<circle cx="153791677.000000" cy="78232000.000000" r="5120000.000000" /> 
<path d="M140142600 95920123
L150382600 95920123
" />
<path d="M140142600 91179123
L140142600 95920123
" />
<path d="M150382600 91179123
L150382600 95920123
" />
<path d="M140142600 92719123
L150382600 92719123
" />
<path d="M140142600 91179123
L150382600 91179123
" />
<path d="M87513400 91014323
L87513400 80874323
" />
<path d="M91353400 91014323
L91353400 80874323
" />
<path d="M90873400 91014323
L91353400 91014323
" />
<path d="M91353400 80874323
L90873400 80874323
" />
<path d="M87993400 91014323
L87513400 91014323
" />
<path d="M87513400 80874323
L87993400 80874323
" />
<path d="M110441400 99098323
L110441400 96158323
" />
<path d="M110441400 96158323
L105001400 96158323
" />
<path d="M105001400 96158323
L105001400 99098323
" />
<path d="M105001400 99098323
L110441400 99098323
" />
<path d="M105901400 96158323
L105901400 99098323
" />
<path d="M103981400 97628323
L105001400 97628323
" />
<path d="M111461400 97628323
L110441400 97628323
" />
<path d="M105781400 96158323
L105781400 99098323
" />
<path d="M106021400 96158323
L106021400 99098323
" />
<path d="M113929400 113366323
L113929400 103226323
" />
<path d="M117769400 103226323
L117289400 103226323
" />
<path d="M117769400 113366323
L117769400 103226323
" />
<path d="M113929400 103226323
L114409400 103226323
" />
<path d="M117289400 113366323
L117769400 113366323
" />
<path d="M114409400 113366323
L113929400 113366323
" />
<path d="M98577400 108112323
L98577400 109132323
" />
<path d="M98577400 115592323
L98577400 114572323
" />
<path d="M97107400 114572323
L100047400 114572323
" />
<path d="M100047400 114572323
L100047400 109132323
" />
<path d="M97107400 113552323
L100047400 113552323
" />
<path d="M97107400 113672323
L100047400 113672323
" />
<path d="M97107400 109132323
L97107400 114572323
" />
<path d="M97107400 113792323
L100047400 113792323
" />
<path d="M100047400 109132323
L97107400 109132323
" />
<path d="M97615400 90304323
L100555400 90304323
" />
<path d="M100555400 91204323
L100555400 85764323
" />
<path d="M97615400 91204323
L100555400 91204323
" />
<path d="M97615400 90424323
L100555400 90424323
" />
<path d="M100555400 85764323
L97615400 85764323
" />
<path d="M97615400 90184323
L100555400 90184323
" />
<path d="M97615400 85764323
L97615400 91204323
" />
<path d="M99085400 84744323
L99085400 85764323
" />
<path d="M99085400 92224323
L99085400 91204323
" />
<path d="M103981400 79340323
L105001400 79340323
" />
<path d="M110441400 77870323
L105001400 77870323
" />
<path d="M110441400 80810323
L110441400 77870323
" />
<path d="M105001400 80810323
L110441400 80810323
" />
<path d="M106021400 77870323
L106021400 80810323
" />
<path d="M111461400 79340323
L110441400 79340323
" />
<path d="M105001400 77870323
L105001400 80810323
" />
<path d="M105781400 77870323
L105781400 80810323
" />
<path d="M105901400 77870323
L105901400 80810323
" />
<path d="M137532323 73157000
L137532323 83307000
" />
<path d="M140773323 74516000
L140773323 76991000
" />
<path d="M138173323 73228000
L138173323 83236000
" />
<path d="M138853323 79473000
L138853323 83069000
" />
<path d="M139413323 79473000
L139413323 82853000
" />
<path d="M140173323 74038000
L140173323 76991000
" />
<path d="M138733323 73358000
L138733323 76991000
" />
<path d="M139773323 73792000
L139773323 76991000
" />
<path d="M138373323 73267000
L138373323 83197000
" />
<path d="M139693323 73749000
L139693323 76991000
" />
<path d="M137412323 73153000
L137412323 83311000
" />
<path d="M140813323 74553000
L140813323 76991000
" />
<path d="M141693323 75653000
L141693323 80811000
" />
<path d="M139613323 79473000
L139613323 82757000
" />
<path d="M138893323 79473000
L138893323 83056000
" />
<path d="M139373323 79473000
L139373323 82871000
" />
<path d="M140573323 74340000
L140573323 76991000
" />
<path d="M140853323 74592000
L140853323 76991000
" />
<path d="M138733323 79473000
L138733323 83106000
" />
<path d="M138573323 79473000
L138573323 83150000
" />
<path d="M139773323 79473000
L139773323 82672000
" />
<path d="M138653323 73335000
L138653323 76991000
" />
<path d="M137852323 73182000
L137852323 83282000
" />
<path d="M138813323 79473000
L138813323 83082000
" />
<path d="M141533323 75402000
L141533323 81062000
" />
<path d="M140933323 74671000
L140933323 76991000
" />
<path d="M139693323 79473000
L139693323 82715000
" />
<path d="M141093323 74840000
L141093323 81624000
" />
<path d="M139453323 73629000
L139453323 76991000
" />
<path d="M139013323 73449000
L139013323 76991000
" />
<path d="M141293323 75076000
L141293323 81388000
" />
<path d="M138133323 73221000
L138133323 83243000
" />
<path d="M140813323 79473000
L140813323 81911000
" />
<path d="M140533323 79473000
L140533323 82157000
" />
<path d="M140293323 74122000
L140293323 76991000
" />
<path d="M140133323 74011000
L140133323 76991000
" />
<path d="M140613323 79473000
L140613323 82090000
" />
<path d="M139733323 79473000
L139733323 82694000
" />
<path d="M141773323 75793000
L141773323 80671000
" />
<path d="M141013323 74754000
L141013323 76991000
" />
<path d="M138613323 73325000
L138613323 76991000
" />
<path d="M138093323 73214000
L138093323 83250000
" />
<path d="M139133323 79473000
L139133323 82970000
" />
<path d="M137932323 73192000
L137932323 83272000
" />
<path d="M138413323 73276000
L138413323 83188000
" />
<path d="M142213323 76854000
L142213323 79610000
" />
<path d="M139653323 79473000
L139653323 82736000
" />
<path d="M141213323 74978000
L141213323 81486000
" />
<path d="M140373323 74182000
L140373323 76991000
" />
<path d="M139213323 79473000
L139213323 82939000
" />
<path d="M138933323 73421000
L138933323 76991000
" />
<path d="M140533323 74307000
L140533323 76991000
" />
<path d="M139253323 79473000
L139253323 82922000
" />
<path d="M140013323 73934000
L140013323 76991000
" />
<path d="M138773323 79473000
L138773323 83094000
" />
<path d="M140893323 74631000
L140893323 76991000
" />
<path d="M138773323 73370000
L138773323 76991000
" />
<path d="M138053323 73208000
L138053323 83256000
" />
<path d="M141653323 75587000
L141653323 80877000
" />
<path d="M139173323 79473000
L139173323 82955000
" />
<path d="M137492323 73155000
L137492323 83309000
" />
<path d="M137332323 73152000
L137332323 83312000
" />
<path d="M139213323 73525000
L139213323 76991000
" />
<path d="M138893323 73408000
L138893323 76991000
" />
<path d="M139933323 73885000
L139933323 76991000
" />
<path d="M140293323 79473000
L140293323 82342000
" />
<path d="M139653323 73728000
L139653323 76991000
" />
<path d="M142293323 77170000
L142293323 79294000
" />
<path d="M142053323 76386000
L142053323 80078000
" />
<path d="M140453323 74243000
L140453323 76991000
" />
<path d="M137292323 73152000
L137292323 83312000
" />
<path d="M142373323 77633000
L142373323 78831000
" />
<path d="M131812677 75357000
L132812677 75357000
" />
<path d="M141973323 76195000
L141973323 80269000
" />
<path d="M139493323 79473000
L139493323 82816000
" />
<path d="M139013323 79473000
L139013323 83015000
" />
<path d="M139893323 73861000
L139893323 76991000
" />
<path d="M141853323 75943000
L141853323 80521000
" />
<path d="M139093323 73478000
L139093323 76991000
" />
<path d="M141133323 74885000
L141133323 81579000
" />
<path d="M138333323 73258000
L138333323 83206000
" />
<path d="M139813323 79473000
L139813323 82649000
" />
<path d="M140093323 79473000
L140093323 82479000
" />
<path d="M138533323 73304000
L138533323 83160000
" />
<path d="M140413323 74212000
L140413323 76991000
" />
<path d="M137612323 73162000
L137612323 83302000
" />
<path d="M139493323 73648000
L139493323 76991000
" />
<path d="M139373323 73593000
L139373323 76991000
" />
<path d="M141013323 79473000
L141013323 81710000
" />
<path d="M139893323 79473000
L139893323 82603000
" />
<path d="M142253323 77002000
L142253323 79462000
" />
<path d="M139453323 79473000
L139453323 82835000
" />
<path d="M141933323 76107000
L141933323 80357000
" />
<path d="M139933323 79473000
L139933323 82579000
" />
<path d="M132312677 74857000
L132312677 75857000
" />
<path d="M138573323 73314000
L138573323 76991000
" />
<path d="M140333323 79473000
L140333323 82312000
" />
<path d="M140653323 79473000
L140653323 82056000
" />
<path d="M140013323 79473000
L140013323 82530000
" />
<path d="M140213323 74066000
L140213323 76991000
" />
<path d="M138253323 73242000
L138253323 83222000
" />
<path d="M140053323 79473000
L140053323 82505000
" />
<path d="M138813323 73382000
L138813323 76991000
" />
<path d="M141733323 75722000
L141733323 80742000
" />
<path d="M140493323 79473000
L140493323 82189000
" />
<path d="M140973323 74712000
L140973323 76991000
" />
<path d="M138613323 79473000
L138613323 83139000
" />
<path d="M140733323 74479000
L140733323 76991000
" />
<path d="M139333323 73575000
L139333323 76991000
" />
<path d="M138693323 73347000
L138693323 76991000
" />
<path d="M137572323 73159000
L137572323 83305000
" />
<path d="M140653323 74408000
L140653323 76991000
" />
<path d="M139413323 73611000
L139413323 76991000
" />
<path d="M140213323 79473000
L140213323 82398000
" />
<path d="M139813323 73815000
L139813323 76991000
" />
<path d="M137892323 73187000
L137892323 83277000
" />
<path d="M138013323 73202000
L138013323 83262000
" />
<path d="M140333323 74152000
L140333323 76991000
" />
<path d="M139973323 73909000
L139973323 76991000
" />
<path d="M139533323 73668000
L139533323 76991000
" />
<path d="M140693323 74443000
L140693323 76991000
" />
<path d="M139853323 73837000
L139853323 76991000
" />
<path d="M142133323 76602000
L142133323 79862000
" />
<path d="M138853323 73395000
L138853323 76991000
" />
<path d="M141253323 75026000
L141253323 81438000
" />
<path d="M141173323 74931000
L141173323 81533000
" />
<path d="M138973323 79473000
L138973323 83029000
" />
<path d="M139293323 79473000
L139293323 82906000
" />
<path d="M141373323 75178000
L141373323 81286000
" />
<path d="M139053323 79473000
L139053323 83000000
" />
<path d="M140693323 79473000
L140693323 82021000
" />
<path d="M140253323 74094000
L140253323 76991000
" />
<path d="M138493323 73294000
L138493323 83170000
" />
<path d="M141333323 75126000
L141333323 81338000
" />
<path d="M138453323 73285000
L138453323 83179000
" />
<path d="M141413323 75232000
L141413323 81232000
" />
<path d="M140773323 79473000
L140773323 81948000
" />
<path d="M138933323 79473000
L138933323 83043000
" />
<path d="M137812323 73178000
L137812323 83286000
" />
<path d="M139053323 73464000
L139053323 76991000
" />
<path d="M138653323 79473000
L138653323 83129000
" />
<path d="M137452323 73154000
L137452323 83310000
" />
<path d="M139973323 79473000
L139973323 82555000
" />
<path d="M137692323 73167000
L137692323 83297000
" />
<path d="M137972323 73197000
L137972323 83267000
" />
<path d="M141493323 75343000
L141493323 81121000
" />
<path d="M141813323 75867000
L141813323 80597000
" />
<path d="M139853323 79473000
L139853323 82627000
" />
<path d="M137652323 73164000
L137652323 83300000
" />
<path d="M141613323 75523000
L141613323 80941000
" />
<path d="M140933323 79473000
L140933323 81793000
" />
<path d="M137772323 73174000
L137772323 83290000
" />
<path d="M140053323 73959000
L140053323 76991000
" />
<path d="M140733323 79473000
L140733323 81985000
" />
<path d="M140613323 74374000
L140613323 76991000
" />
<path d="M142173323 76722000
L142173323 79742000
" />
<path d="M140893323 79473000
L140893323 81833000
" />
<path d="M137732323 73170000
L137732323 83294000
" />
<path d="M141453323 75287000
L141453323 81177000
" />
<path d="M139533323 79473000
L139533323 82796000
" />
<path d="M137372323 73152000
L137372323 83312000
" />
<path d="M138213323 73235000
L138213323 83229000
" />
<path d="M140373323 79473000
L140373323 82282000
" />
<path d="M139573323 73687000
L139573323 76991000
" />
<path d="M139293323 73558000
L139293323 76991000
" />
<path d="M139573323 79473000
L139573323 82777000
" />
<path d="M138693323 79473000
L138693323 83117000
" />
<path d="M140253323 79473000
L140253323 82370000
" />
<path d="M139253323 73542000
L139253323 76991000
" />
<path d="M142093323 76490000
L142093323 79974000
" />
<path d="M139613323 73707000
L139613323 76991000
" />
<path d="M140173323 79473000
L140173323 82426000
" />
<path d="M140493323 74275000
L140493323 76991000
" />
<path d="M139133323 73494000
L139133323 76991000
" />
<path d="M140453323 79473000
L140453323 82221000
" />
<path d="M141053323 74796000
L141053323 81668000
" />
<path d="M139733323 73770000
L139733323 76991000
" />
<path d="M140973323 79473000
L140973323 81752000
" />
<path d="M139333323 79473000
L139333323 82889000
" />
<path d="M139173323 73509000
L139173323 76991000
" />
<path d="M140093323 73985000
L140093323 76991000
" />
<path d="M140413323 79473000
L140413323 82252000
" />
<path d="M142013323 76288000
L142013323 80176000
" />
<path d="M140573323 79473000
L140573323 82124000
" />
<path d="M139093323 79473000
L139093323 82986000
" />
<path d="M141573323 75462000
L141573323 81002000
" />
<path d="M138973323 73435000
L138973323 76991000
" />
<path d="M140853323 79473000
L140853323 81872000
" />
<path d="M141893323 76023000
L141893323 80441000
" />
<path d="M140133323 79473000
L140133323 82453000
" />
<path d="M138293323 73250000
L138293323 83214000
" />
<path d="M142333323 77370000
L142333323 79094000
" />
<circle cx="137292323.000000" cy="78232000.000000" r="5120000.000000" /> 
<path d="M83347400 96696323
L83347400 96216323
" />
<path d="M83347400 99576323
L83347400 100056323
" />
<path d="M83347400 96216323
L93487400 96216323
" />
<path d="M93487400 96216323
L93487400 96696323
" />
<path d="M93487400 100056323
L93487400 99576323
" />
<path d="M83347400 100056323
L93487400 100056323
" />
<path d="M104587000 105947000
L104587000 102841000
" />
<path d="M102147000 107787000
L102147000 106589000
" />
<path d="M106708000 112242000
L106708000 102134000
" />
<path d="M103067000 110133000
L103067000 104243000
" />
<path d="M104867000 111692000
L104867000 108429000
" />
<path d="M103267000 110394000
L103267000 103982000
" />
<path d="M104547000 105947000
L104547000 102865000
" />
<path d="M103387000 110535000
L103387000 103841000
" />
<path d="M106427000 112206000
L106427000 102170000
" />
<path d="M104467000 105947000
L104467000 102915000
" />
<path d="M105787000 105947000
L105787000 102314000
" />
<path d="M106588000 112228000
L106588000 102148000
" />
<path d="M106828000 112253000
L106828000 102123000
" />
<path d="M103947000 111080000
L103947000 108429000
" />
<path d="M105267000 111878000
L105267000 108429000
" />
<path d="M106067000 112135000
L106067000 102241000
" />
<path d="M106507000 112218000
L106507000 102158000
" />
<path d="M104027000 105947000
L104027000 103231000
" />
<path d="M106668000 112238000
L106668000 102138000
" />
<path d="M103347000 110489000
L103347000 103887000
" />
<path d="M102467000 109034000
L102467000 105342000
" />
<path d="M105467000 111956000
L105467000 108429000
" />
<path d="M112207646 110563000
L112207646 109563000
" />
<path d="M104187000 105947000
L104187000 103108000
" />
<path d="M103587000 105947000
L103587000 103627000
" />
<path d="M106467000 112212000
L106467000 102164000
" />
<path d="M106187000 112162000
L106187000 102214000
" />
<path d="M105307000 111895000
L105307000 108429000
" />
<path d="M104987000 111752000
L104987000 108429000
" />
<path d="M105227000 105947000
L105227000 102514000
" />
<path d="M103547000 110708000
L103547000 108429000
" />
<path d="M104507000 105947000
L104507000 102890000
" />
<path d="M105827000 112073000
L105827000 108429000
" />
<path d="M105507000 105947000
L105507000 102405000
" />
<path d="M106548000 112223000
L106548000 102153000
" />
<path d="M105427000 105947000
L105427000 102434000
" />
<path d="M104787000 111650000
L104787000 108429000
" />
<path d="M102787000 109698000
L102787000 104678000
" />
<path d="M102907000 109897000
L102907000 104479000
" />
<path d="M106628000 112233000
L106628000 102143000
" />
<path d="M105907000 105947000
L105907000 102281000
" />
<path d="M102267000 108418000
L102267000 105958000
" />
<path d="M103987000 111113000
L103987000 108429000
" />
<path d="M105347000 105947000
L105347000 102465000
" />
<path d="M105627000 112012000
L105627000 108429000
" />
<path d="M103587000 110749000
L103587000 108429000
" />
<path d="M105307000 105947000
L105307000 102481000
" />
<path d="M105547000 111985000
L105547000 108429000
" />
<path d="M102667000 109477000
L102667000 104899000
" />
<path d="M103747000 105947000
L103747000 103472000
" />
<path d="M103187000 110294000
L103187000 104082000
" />
<path d="M103107000 110188000
L103107000 104188000
" />
<path d="M105507000 111971000
L105507000 108429000
" />
<path d="M102187000 108050000
L102187000 106326000
" />
<path d="M105907000 112095000
L105907000 108429000
" />
<path d="M106347000 112192000
L106347000 102184000
" />
<path d="M104947000 111733000
L104947000 108429000
" />
<path d="M105467000 105947000
L105467000 102420000
" />
<path d="M104347000 111382000
L104347000 108429000
" />
<path d="M105027000 105947000
L105027000 102604000
" />
<path d="M104667000 111583000
L104667000 108429000
" />
<path d="M104187000 111268000
L104187000 108429000
" />
<path d="M104067000 105947000
L104067000 103199000
" />
<path d="M103827000 110977000
L103827000 108429000
" />
<path d="M102547000 109225000
L102547000 105151000
" />
<path d="M103707000 110867000
L103707000 108429000
" />
<path d="M103627000 105947000
L103627000 103587000
" />
<path d="M104587000 111535000
L104587000 108429000
" />
<path d="M105267000 105947000
L105267000 102498000
" />
<path d="M103467000 110624000
L103467000 103752000
" />
<path d="M105347000 111911000
L105347000 108429000
" />
<path d="M103787000 110941000
L103787000 108429000
" />
<path d="M104347000 105947000
L104347000 102994000
" />
<path d="M104147000 105947000
L104147000 103138000
" />
<path d="M102427000 108930000
L102427000 105446000
" />
<path d="M105747000 112050000
L105747000 108429000
" />
<path d="M102347000 108698000
L102347000 105678000
" />
<path d="M106948000 112261000
L106948000 102115000
" />
<path d="M107108000 112267000
L107108000 102109000
" />
<path d="M104427000 111435000
L104427000 108429000
" />
<path d="M102987000 110018000
L102987000 104358000
" />
<path d="M103227000 110344000
L103227000 104032000
" />
<path d="M106027000 112126000
L106027000 102250000
" />
<path d="M103707000 105947000
L103707000 103509000
" />
<path d="M104907000 105947000
L104907000 102663000
" />
<path d="M105107000 111809000
L105107000 108429000
" />
<path d="M103787000 105947000
L103787000 103435000
" />
<path d="M103427000 110580000
L103427000 103796000
" />
<path d="M112707646 110063000
L111707646 110063000
" />
<path d="M104867000 105947000
L104867000 102684000
" />
<path d="M104707000 111605000
L104707000 108429000
" />
<path d="M104827000 111671000
L104827000 108429000
" />
<path d="M102227000 108250000
L102227000 106126000
" />
<path d="M103867000 111012000
L103867000 108429000
" />
<path d="M104827000 105947000
L104827000 102705000
" />
<path d="M104227000 111298000
L104227000 108429000
" />
<path d="M103627000 110789000
L103627000 108429000
" />
<path d="M105707000 112038000
L105707000 108429000
" />
<path d="M103867000 105947000
L103867000 103364000
" />
<path d="M105707000 105947000
L105707000 102338000
" />
<path d="M104227000 105947000
L104227000 103078000
" />
<path d="M104627000 111559000
L104627000 108429000
" />
<path d="M106387000 112199000
L106387000 102177000
" />
<path d="M107148000 112268000
L107148000 102108000
" />
<path d="M104107000 105947000
L104107000 103168000
" />
<path d="M104467000 111461000
L104467000 108429000
" />
<path d="M105187000 105947000
L105187000 102531000
" />
<path d="M103507000 110666000
L103507000 108429000
" />
<path d="M102587000 109313000
L102587000 105063000
" />
<path d="M106227000 112170000
L106227000 102206000
" />
<path d="M104387000 105947000
L104387000 102967000
" />
<path d="M105187000 111845000
L105187000 108429000
" />
<path d="M103507000 105947000
L103507000 103710000
" />
<path d="M103307000 110442000
L103307000 103934000
" />
<path d="M106107000 112144000
L106107000 102232000
" />
<path d="M104147000 111238000
L104147000 108429000
" />
<path d="M102627000 109397000
L102627000 104979000
" />
<path d="M103547000 105947000
L103547000 103668000
" />
<path d="M104907000 111713000
L104907000 108429000
" />
<path d="M103667000 110828000
L103667000 108429000
" />
<path d="M104107000 111208000
L104107000 108429000
" />
<path d="M104547000 111511000
L104547000 108429000
" />
<path d="M105587000 111999000
L105587000 108429000
" />
<path d="M105147000 105947000
L105147000 102549000
" />
<path d="M104667000 105947000
L104667000 102793000
" />
<path d="M106908000 112258000
L106908000 102118000
" />
<path d="M103907000 105947000
L103907000 103330000
" />
<path d="M102507000 109132000
L102507000 105244000
" />
<path d="M106147000 112153000
L106147000 102223000
" />
<path d="M104987000 105947000
L104987000 102624000
" />
<path d="M105787000 112062000
L105787000 108429000
" />
<path d="M105867000 112085000
L105867000 108429000
" />
<path d="M107228000 112268000
L107228000 102108000
" />
<path d="M104627000 105947000
L104627000 102817000
" />
<path d="M104747000 105947000
L104747000 102748000
" />
<path d="M105947000 112106000
L105947000 108429000
" />
<path d="M105387000 105947000
L105387000 102450000
" />
<path d="M102707000 109553000
L102707000 104823000
" />
<path d="M105947000 105947000
L105947000 102270000
" />
<path d="M104307000 105947000
L104307000 103022000
" />
<path d="M104067000 111177000
L104067000 108429000
" />
<path d="M106307000 112185000
L106307000 102191000
" />
<path d="M103747000 110904000
L103747000 108429000
" />
<path d="M105587000 105947000
L105587000 102377000
" />
<path d="M103027000 110077000
L103027000 104299000
" />
<path d="M104747000 111628000
L104747000 108429000
" />
<path d="M105067000 105947000
L105067000 102585000
" />
<path d="M105667000 112025000
L105667000 108429000
" />
<path d="M103827000 105947000
L103827000 103399000
" />
<path d="M104787000 105947000
L104787000 102726000
" />
<path d="M104027000 111145000
L104027000 108429000
" />
<path d="M104267000 111326000
L104267000 108429000
" />
<path d="M107068000 112266000
L107068000 102110000
" />
<path d="M102387000 108818000
L102387000 105558000
" />
<path d="M105667000 105947000
L105667000 102351000
" />
<path d="M105987000 112116000
L105987000 102260000
" />
<path d="M102307000 108566000
L102307000 105810000
" />
<path d="M107188000 112268000
L107188000 102108000
" />
<path d="M105427000 111942000
L105427000 108429000
" />
<path d="M102947000 109958000
L102947000 104418000
" />
<path d="M105867000 105947000
L105867000 102291000
" />
<path d="M106868000 112256000
L106868000 102120000
" />
<path d="M105627000 105947000
L105627000 102364000
" />
<path d="M105387000 111926000
L105387000 108429000
" />
<path d="M105227000 111862000
L105227000 108429000
" />
<path d="M105067000 111791000
L105067000 108429000
" />
<path d="M104387000 111409000
L104387000 108429000
" />
<path d="M102827000 109767000
L102827000 104609000
" />
<path d="M106267000 112178000
L106267000 102198000
" />
<path d="M105547000 105947000
L105547000 102391000
" />
<path d="M104427000 105947000
L104427000 102941000
" />
<path d="M104507000 111486000
L104507000 108429000
" />
<path d="M105107000 105947000
L105107000 102567000
" />
<path d="M102747000 109627000
L102747000 104749000
" />
<path d="M104307000 111354000
L104307000 108429000
" />
<path d="M106748000 112246000
L106748000 102130000
" />
<path d="M105027000 111772000
L105027000 108429000
" />
<path d="M103987000 105947000
L103987000 103263000
" />
<path d="M105747000 105947000
L105747000 102326000
" />
<path d="M106988000 112263000
L106988000 102113000
" />
<path d="M102867000 109833000
L102867000 104543000
" />
<path d="M105827000 105947000
L105827000 102303000
" />
<path d="M103147000 110242000
L103147000 104134000
" />
<path d="M104707000 105947000
L104707000 102771000
" />
<path d="M106788000 112250000
L106788000 102126000
" />
<path d="M107028000 112265000
L107028000 102111000
" />
<path d="M105147000 111827000
L105147000 108429000
" />
<path d="M103947000 105947000
L103947000 103296000
" />
<path d="M103907000 111046000
L103907000 108429000
" />
<path d="M104947000 105947000
L104947000 102643000
" />
<path d="M104267000 105947000
L104267000 103050000
" />
<path d="M103667000 105947000
L103667000 103548000
" />
<circle cx="107228000.000000" cy="107188000.000000" r="5120000.000000" /> 
<g >
</g>
<g >
</g>
<g >
</g>
<g >
</g>
<g >
</g>
<g >
</g>
<g >
</g>
<g >
</g>
<g >
</g>
<g >
</g>
<g >
</g>
<g >
</g>
<g >
</g>
<g >
</g>
<g >
</g>
<g >
</g>
<g >
</g>
<g >
</g>
<g >
</g>
<g >
</g>
<g >
</g>
<g >
</g>
<g >
</g>
<g >
</g>
<g >
</g>
</g> 
</svg>
